<svg width="426" height="53" viewBox="0 0 426 53" fill="none" xmlns="http://www.w3.org/2000/svg">
<path d="M18.685 14.73C21.3717 14.73 23.7983 15.315 25.965 16.485C28.1317 17.6117 29.8217 19.3233 31.035 21.62C32.2917 23.9167 32.92 26.7117 32.92 30.005V51H27.07V30.85C27.07 27.2967 26.1817 24.5883 24.405 22.725C22.6283 20.8183 20.2017 19.865 17.125 19.865C14.005 19.865 11.5133 20.84 9.65 22.79C7.83 24.74 6.92 27.5783 6.92 31.305V51H1.005V2.9H6.92V20.45C8.09 18.63 9.69333 17.2217 11.73 16.225C13.81 15.2283 16.1283 14.73 18.685 14.73ZM40.3721 33.06C40.3721 29.42 41.1088 26.235 42.5821 23.505C44.0555 20.7317 46.0705 18.5867 48.6271 17.07C51.2271 15.5533 54.1088 14.795 57.2721 14.795C60.3921 14.795 63.1005 15.4667 65.3972 16.81C67.6938 18.1533 69.4055 19.8433 70.5322 21.88V15.38H76.5122V51H70.5322V44.37C69.3621 46.45 67.6071 48.1833 65.2672 49.57C62.9705 50.9133 60.2838 51.585 57.2071 51.585C54.0438 51.585 51.1838 50.805 48.6271 49.245C46.0705 47.685 44.0555 45.4967 42.5821 42.68C41.1088 39.8633 40.3721 36.6567 40.3721 33.06ZM70.5322 33.125C70.5322 30.4383 69.9905 28.0983 68.9071 26.105C67.8238 24.1117 66.3505 22.595 64.4872 21.555C62.6671 20.4717 60.6521 19.93 58.4421 19.93C56.2321 19.93 54.2171 20.45 52.3971 21.49C50.5771 22.53 49.1255 24.0467 48.0421 26.04C46.9588 28.0333 46.4171 30.3733 46.4171 33.06C46.4171 35.79 46.9588 38.1733 48.0421 40.21C49.1255 42.2033 50.5771 43.7417 52.3971 44.825C54.2171 45.865 56.2321 46.385 58.4421 46.385C60.6521 46.385 62.6671 45.865 64.4872 44.825C66.3505 43.7417 67.8238 42.2033 68.9071 40.21C69.9905 38.1733 70.5322 35.8117 70.5322 33.125ZM129.343 14.73C132.116 14.73 134.586 15.315 136.753 16.485C138.92 17.6117 140.631 19.3233 141.888 21.62C143.145 23.9167 143.773 26.7117 143.773 30.005V51H137.923V30.85C137.923 27.2967 137.035 24.5883 135.258 22.725C133.525 20.8183 131.163 19.865 128.173 19.865C125.096 19.865 122.648 20.8617 120.828 22.855C119.008 24.805 118.098 27.6433 118.098 31.37V51H112.248V30.85C112.248 27.2967 111.36 24.5883 109.583 22.725C107.85 20.8183 105.488 19.865 102.498 19.865C99.4213 19.865 96.9729 20.8617 95.1529 22.855C93.3329 24.805 92.4229 27.6433 92.4229 31.37V51H86.5079V15.38H92.4229V20.515C93.5929 18.6517 95.1529 17.2217 97.1029 16.225C99.0963 15.2283 101.285 14.73 103.668 14.73C106.658 14.73 109.301 15.4017 111.598 16.745C113.895 18.0883 115.606 20.06 116.733 22.66C117.73 20.1467 119.376 18.1967 121.673 16.81C123.97 15.4233 126.526 14.73 129.343 14.73ZM196.311 14.73C199.084 14.73 201.554 15.315 203.721 16.485C205.887 17.6117 207.599 19.3233 208.856 21.62C210.112 23.9167 210.741 26.7117 210.741 30.005V51H204.891V30.85C204.891 27.2967 204.002 24.5883 202.226 22.725C200.492 20.8183 198.131 19.865 195.141 19.865C192.064 19.865 189.616 20.8617 187.796 22.855C185.976 24.805 185.066 27.6433 185.066 31.37V51H179.216V30.85C179.216 27.2967 178.327 24.5883 176.551 22.725C174.817 20.8183 172.456 19.865 169.466 19.865C166.389 19.865 163.941 20.8617 162.121 22.855C160.301 24.805 159.391 27.6433 159.391 31.37V51H153.476V15.38H159.391V20.515C160.561 18.6517 162.121 17.2217 164.071 16.225C166.064 15.2283 168.252 14.73 170.636 14.73C173.626 14.73 176.269 15.4017 178.566 16.745C180.862 18.0883 182.574 20.06 183.701 22.66C184.697 20.1467 186.344 18.1967 188.641 16.81C190.937 15.4233 193.494 14.73 196.311 14.73ZM252.033 15.38V51H246.118V45.735C244.992 47.555 243.41 48.985 241.373 50.025C239.38 51.0217 237.17 51.52 234.743 51.52C231.97 51.52 229.478 50.9567 227.268 49.83C225.058 48.66 223.303 46.9267 222.003 44.63C220.747 42.3333 220.118 39.5383 220.118 36.245V15.38H225.968V35.465C225.968 38.975 226.857 41.6833 228.633 43.59C230.41 45.4533 232.837 46.385 235.913 46.385C239.077 46.385 241.568 45.41 243.388 43.46C245.208 41.51 246.118 38.6717 246.118 34.945V15.38H252.033ZM267.936 21.165C268.976 19.1283 270.449 17.5467 272.356 16.42C274.306 15.2933 276.667 14.73 279.441 14.73V20.84H277.881C271.251 20.84 267.936 24.4367 267.936 31.63V51H262.021V15.38H267.936V21.165ZM284.059 33.06C284.059 29.42 284.795 26.235 286.269 23.505C287.742 20.7317 289.757 18.5867 292.314 17.07C294.914 15.5533 297.795 14.795 300.959 14.795C304.079 14.795 306.787 15.4667 309.084 16.81C311.38 18.1533 313.092 19.8433 314.219 21.88V15.38H320.199V51H314.219V44.37C313.049 46.45 311.294 48.1833 308.954 49.57C306.657 50.9133 303.97 51.585 300.894 51.585C297.73 51.585 294.87 50.805 292.314 49.245C289.757 47.685 287.742 45.4967 286.269 42.68C284.795 39.8633 284.059 36.6567 284.059 33.06ZM314.219 33.125C314.219 30.4383 313.677 28.0983 312.594 26.105C311.51 24.1117 310.037 22.595 308.174 21.555C306.354 20.4717 304.339 19.93 302.129 19.93C299.919 19.93 297.904 20.45 296.084 21.49C294.264 22.53 292.812 24.0467 291.729 26.04C290.645 28.0333 290.104 30.3733 290.104 33.06C290.104 35.79 290.645 38.1733 291.729 40.21C292.812 42.2033 294.264 43.7417 296.084 44.825C297.904 45.865 299.919 46.385 302.129 46.385C304.339 46.385 306.354 45.865 308.174 44.825C310.037 43.7417 311.51 42.2033 312.594 40.21C313.677 38.1733 314.219 35.8117 314.219 33.125ZM336.109 22.01C337.323 19.8867 339.099 18.1533 341.439 16.81C343.779 15.4667 346.444 14.795 349.434 14.795C352.641 14.795 355.523 15.5533 358.079 17.07C360.636 18.5867 362.651 20.7317 364.124 23.505C365.598 26.235 366.334 29.42 366.334 33.06C366.334 36.6567 365.598 39.8633 364.124 42.68C362.651 45.4967 360.614 47.685 358.014 49.245C355.458 50.805 352.598 51.585 349.434 51.585C346.358 51.585 343.649 50.9133 341.309 49.57C339.013 48.2267 337.279 46.515 336.109 44.435V51H330.194V2.9H336.109V22.01ZM360.289 33.06C360.289 30.3733 359.748 28.0333 358.664 26.04C357.581 24.0467 356.108 22.53 354.244 21.49C352.424 20.45 350.409 19.93 348.199 19.93C346.033 19.93 344.018 20.4717 342.154 21.555C340.334 22.595 338.861 24.1333 337.734 26.17C336.651 28.1633 336.109 30.4817 336.109 33.125C336.109 35.8117 336.651 38.1733 337.734 40.21C338.861 42.2033 340.334 43.7417 342.154 44.825C344.018 45.865 346.033 46.385 348.199 46.385C350.409 46.385 352.424 45.865 354.244 44.825C356.108 43.7417 357.581 42.2033 358.664 40.21C359.748 38.1733 360.289 35.79 360.289 33.06ZM380.035 22.01C381.249 19.8867 383.025 18.1533 385.365 16.81C387.705 15.4667 390.37 14.795 393.36 14.795C396.567 14.795 399.449 15.5533 402.005 17.07C404.562 18.5867 406.577 20.7317 408.05 23.505C409.524 26.235 410.26 29.42 410.26 33.06C410.26 36.6567 409.524 39.8633 408.05 42.68C406.577 45.4967 404.54 47.685 401.94 49.245C399.384 50.805 396.524 51.585 393.36 51.585C390.284 51.585 387.575 50.9133 385.235 49.57C382.939 48.2267 381.205 46.515 380.035 44.435V51H374.12V2.9H380.035V22.01ZM404.215 33.06C404.215 30.3733 403.674 28.0333 402.59 26.04C401.507 24.0467 400.034 22.53 398.17 21.49C396.35 20.45 394.335 19.93 392.125 19.93C389.959 19.93 387.944 20.4717 386.08 21.555C384.26 22.595 382.787 24.1333 381.66 26.17C380.577 28.1633 380.035 30.4817 380.035 33.125C380.035 35.8117 380.577 38.1733 381.66 40.21C382.787 42.2033 384.26 43.7417 386.08 44.825C387.944 45.865 389.959 46.385 392.125 46.385C394.335 46.385 396.35 45.865 398.17 44.825C400.034 43.7417 401.507 42.2033 402.59 40.21C403.674 38.1733 404.215 35.79 404.215 33.06ZM421.101 9.595C419.974 9.595 419.021 9.205 418.241 8.425C417.461 7.645 417.071 6.69166 417.071 5.565C417.071 4.43833 417.461 3.485 418.241 2.705C419.021 1.925 419.974 1.535 421.101 1.535C422.184 1.535 423.094 1.925 423.831 2.705C424.611 3.485 425.001 4.43833 425.001 5.565C425.001 6.69166 424.611 7.645 423.831 8.425C423.094 9.205 422.184 9.595 421.101 9.595ZM423.961 15.38V51H418.046V15.38H423.961Z" fill="black"/>
<path d="M25.965 16.485L25.4899 17.3649L25.4967 17.3686L25.5036 17.3722L25.965 16.485ZM31.035 21.62L30.1508 22.0871L30.1542 22.0936L30.1577 22.1L31.035 21.62ZM32.92 51V52H33.92V51H32.92ZM27.07 51H26.07V52H27.07V51ZM24.405 22.725L23.6733 23.4068L23.6813 23.4151L24.405 22.725ZM9.65 22.79L8.92696 22.0991L8.91895 22.1077L9.65 22.79ZM6.92 51V52H7.92V51H6.92ZM1.005 51H0.00500046V52H1.005V51ZM1.005 2.9V1.9H0.00500046V2.9H1.005ZM6.92 2.9H7.92V1.9H6.92V2.9ZM6.92 20.45H5.92V23.8548L7.76118 20.9908L6.92 20.45ZM11.73 16.225L11.2979 15.3232L11.2904 15.3268L11.73 16.225ZM18.685 15.73C21.2212 15.73 23.4822 16.2808 25.4899 17.3649L26.4402 15.6051C24.1145 14.3492 21.5221 13.73 18.685 13.73V15.73ZM25.5036 17.3722C27.4782 18.399 29.0261 19.9581 30.1508 22.0871L31.9192 21.1529C30.6173 18.6885 28.7851 16.8244 26.4264 15.5978L25.5036 17.3722ZM30.1577 22.1C31.3157 24.2163 31.92 26.837 31.92 30.005H33.92C33.92 26.5864 33.2676 23.6171 31.9123 21.14L30.1577 22.1ZM31.92 30.005V51H33.92V30.005H31.92ZM32.92 50H27.07V52H32.92V50ZM28.07 51V30.85H26.07V51H28.07ZM28.07 30.85C28.07 27.1386 27.1409 24.1453 25.1287 22.0349L23.6813 23.4151C25.2224 25.0314 26.07 27.4547 26.07 30.85H28.07ZM25.1366 22.0433C23.1366 19.8969 20.4246 18.865 17.125 18.865V20.865C19.9787 20.865 22.1201 21.7398 23.6734 23.4067L25.1366 22.0433ZM17.125 18.865C13.7786 18.865 11.009 19.9203 8.92701 22.0991L10.373 23.4809C12.0177 21.7597 14.2314 20.865 17.125 20.865V18.865ZM8.91895 22.1077C6.86767 24.3055 5.92 27.4262 5.92 31.305H7.92C7.92 27.7305 8.79233 25.1745 10.3811 23.4723L8.91895 22.1077ZM5.92 31.305V51H7.92V31.305H5.92ZM6.92 50H1.005V52H6.92V50ZM2.005 51V2.9H0.00500046V51H2.005ZM1.005 3.9H6.92V1.9H1.005V3.9ZM5.92 2.9V20.45H7.92V2.9H5.92ZM7.76118 20.9908C8.82761 19.3319 10.2887 18.0437 12.1696 17.1232L11.2904 15.3268C9.09801 16.3997 7.35239 17.9281 6.07882 19.9092L7.76118 20.9908ZM12.1621 17.1268C14.0932 16.2015 16.2615 15.73 18.685 15.73V13.73C15.9952 13.73 13.5268 14.2552 11.2979 15.3232L12.1621 17.1268ZM42.5821 23.505L43.4622 23.9799L43.4653 23.9742L42.5821 23.505ZM48.6271 17.07L48.1233 16.2062L48.1169 16.2099L48.6271 17.07ZM65.3972 16.81L64.8923 17.6732L64.8923 17.6732L65.3972 16.81ZM70.5322 21.88L69.6571 22.3641L71.5322 21.88H70.5322ZM70.5322 15.38V14.38H69.5322V15.38H70.5322ZM76.5122 15.38H77.5122V14.38H76.5122V15.38ZM76.5122 51V52H77.5122V51H76.5122ZM70.5322 51H69.5322V52H70.5322V51ZM70.5322 44.37H71.5322V40.5525L69.6606 43.8797L70.5322 44.37ZM65.2672 49.57L65.772 50.4332L65.777 50.4303L65.2672 49.57ZM48.6271 49.245L48.1063 50.0986L48.1063 50.0986L48.6271 49.245ZM42.5821 42.68L43.4682 42.2165L43.4682 42.2165L42.5821 42.68ZM64.4872 21.555L63.9757 22.4143L63.9876 22.4214L63.9998 22.4282L64.4872 21.555ZM52.3971 21.49L51.901 20.6218L51.901 20.6218L52.3971 21.49ZM48.0421 26.04L48.9208 26.5175L48.9208 26.5175L48.0421 26.04ZM48.0421 40.21L47.1592 40.6796L47.1635 40.6875L48.0421 40.21ZM52.3971 44.825L51.8857 45.6843L51.8933 45.6888L51.901 45.6932L52.3971 44.825ZM64.4872 44.825L64.9833 45.6933L64.9898 45.6895L64.4872 44.825ZM68.9071 40.21L69.7858 40.6875L69.79 40.6796L68.9071 40.21ZM41.3721 33.06C41.3721 29.557 42.0802 26.5406 43.4622 23.9799L41.7021 23.0301C40.1374 25.9294 39.3721 29.283 39.3721 33.06H41.3721ZM43.4653 23.9742C44.8576 21.3533 46.7475 19.3477 49.1374 17.9301L48.1169 16.2099C45.3934 17.8256 43.2534 20.11 41.699 23.0358L43.4653 23.9742ZM49.131 17.9338C51.5702 16.5109 54.2765 15.795 57.2721 15.795V13.795C53.9411 13.795 50.8841 14.5957 48.1233 16.2062L49.131 17.9338ZM57.2721 15.795C60.2456 15.795 62.7734 16.4339 64.8923 17.6732L65.902 15.9468C63.4275 14.4995 60.5387 13.795 57.2721 13.795V15.795ZM64.8923 17.6732C67.0563 18.939 68.6294 20.5062 69.6571 22.3641L71.4072 21.3959C70.1816 19.1805 68.3313 17.3677 65.902 15.9468L64.8923 17.6732ZM71.5322 21.88V15.38H69.5322V21.88H71.5322ZM70.5322 16.38H76.5122V14.38H70.5322V16.38ZM75.5122 15.38V51H77.5122V15.38H75.5122ZM76.5122 50H70.5322V52H76.5122V50ZM71.5322 51V44.37H69.5322V51H71.5322ZM69.6606 43.8797C68.5881 45.7864 66.9678 47.3998 64.7573 48.7097L65.777 50.4303C68.2465 48.9669 70.1362 47.1136 71.4037 44.8603L69.6606 43.8797ZM64.7623 48.7068C62.6413 49.9473 60.1345 50.585 57.2071 50.585V52.585C60.4331 52.585 63.2996 51.8793 65.772 50.4332L64.7623 48.7068ZM57.2071 50.585C54.2168 50.585 51.5389 49.8502 49.148 48.3914L48.1063 50.0986C50.8288 51.7598 53.8708 52.585 57.2071 52.585V50.585ZM49.148 48.3914C46.7558 46.9317 44.8629 44.8827 43.4682 42.2165L41.6961 43.1435C43.2481 46.1107 45.3851 48.4383 48.1063 50.0986L49.148 48.3914ZM43.4682 42.2165C42.0791 39.5607 41.3721 36.5167 41.3721 33.06H39.3721C39.3721 36.7966 40.1385 40.1659 41.6961 43.1435L43.4682 42.2165ZM71.5322 33.125C71.5322 30.3023 70.9622 27.7922 69.7858 25.6275L68.0285 26.5825C69.0187 28.4045 69.5322 30.5744 69.5322 33.125H71.5322ZM69.7858 25.6275C68.6181 23.4789 67.0137 21.8199 64.9745 20.6818L63.9998 22.4282C65.6873 23.3701 67.0296 24.7445 68.0285 26.5825L69.7858 25.6275ZM64.9986 20.6957C63.017 19.5162 60.824 18.93 58.4421 18.93V20.93C60.4803 20.93 62.3173 21.4271 63.9757 22.4143L64.9986 20.6957ZM58.4421 18.93C56.0679 18.93 53.8804 19.4907 51.901 20.6218L52.8933 22.3582C54.5539 21.4093 56.3964 20.93 58.4421 20.93V18.93ZM51.901 20.6218C49.9064 21.7615 48.328 23.4199 47.1635 25.5625L48.9208 26.5175C49.923 24.6735 51.2479 23.2985 52.8933 22.3582L51.901 20.6218ZM47.1635 25.5625C45.9871 27.7272 45.4171 30.2373 45.4171 33.06H47.4171C47.4171 30.5094 47.9306 28.3395 48.9208 26.5175L47.1635 25.5625ZM45.4171 33.06C45.4171 35.9238 45.9861 38.474 47.1593 40.6796L48.925 39.7404C47.9315 37.8727 47.4171 35.6562 47.4171 33.06H45.4171ZM47.1635 40.6875C48.3264 42.8271 49.9002 44.5025 51.8857 45.6843L52.9086 43.9657C51.2541 42.9809 49.9246 41.5795 48.9208 39.7325L47.1635 40.6875ZM51.901 45.6932C53.8804 46.8243 56.0679 47.385 58.4421 47.385V45.385C56.3964 45.385 54.5539 44.9057 52.8933 43.9568L51.901 45.6932ZM58.4421 47.385C60.8164 47.385 63.0039 46.8243 64.9833 45.6932L63.991 43.9568C62.3304 44.9057 60.4879 45.385 58.4421 45.385V47.385ZM64.9898 45.6895C67.02 44.5091 68.6197 42.833 69.7858 40.6875L68.0285 39.7325C67.0279 41.5736 65.681 42.9742 63.9845 43.9605L64.9898 45.6895ZM69.79 40.6796C70.962 38.4762 71.5322 35.9484 71.5322 33.125H69.5322C69.5322 35.675 69.0189 37.8704 68.0243 39.7404L69.79 40.6796ZM136.753 16.485L136.278 17.3649L136.285 17.3686L136.292 17.3722L136.753 16.485ZM141.888 21.62L141.011 22.1L141.011 22.1L141.888 21.62ZM143.773 51V52H144.773V51H143.773ZM137.923 51H136.923V52H137.923V51ZM135.258 22.725L134.518 23.3977L134.526 23.4065L134.534 23.4151L135.258 22.725ZM120.828 22.855L121.559 23.5374L121.566 23.5293L120.828 22.855ZM118.098 51V52H119.098V51H118.098ZM112.248 51H111.248V52H112.248V51ZM109.583 22.725L108.843 23.3977L108.851 23.4065L108.859 23.4151L109.583 22.725ZM95.1529 22.855L95.884 23.5374L95.8914 23.5293L95.1529 22.855ZM92.4229 51V52H93.4229V51H92.4229ZM86.5079 51H85.5079V52H86.5079V51ZM86.5079 15.38V14.38H85.5079V15.38H86.5079ZM92.4229 15.38H93.4229V14.38H92.4229V15.38ZM92.4229 20.515H91.4229V23.9881L93.2698 21.0468L92.4229 20.515ZM97.1029 16.225L96.6557 15.3305L96.6478 15.3346L97.1029 16.225ZM111.598 16.745L111.093 17.6082L111.093 17.6082L111.598 16.745ZM116.733 22.66L115.815 23.0576L116.774 25.2695L117.663 23.0286L116.733 22.66ZM121.673 16.81L122.19 17.6661L122.19 17.6661L121.673 16.81ZM129.343 15.73C131.972 15.73 134.275 16.2832 136.278 17.3649L137.228 15.6051C134.898 14.3468 132.261 13.73 129.343 13.73V15.73ZM136.292 17.3722C138.269 18.4007 139.842 19.9642 141.011 22.1L142.765 21.14C141.421 18.6825 139.57 16.8226 137.214 15.5978L136.292 17.3722ZM141.011 22.1C142.169 24.2163 142.773 26.837 142.773 30.005H144.773C144.773 26.5864 144.121 23.6171 142.765 21.14L141.011 22.1ZM142.773 30.005V51H144.773V30.005H142.773ZM143.773 50H137.923V52H143.773V50ZM138.923 51V30.85H136.923V51H138.923ZM138.923 30.85C138.923 27.1386 137.994 24.1453 135.982 22.0349L134.534 23.4151C136.075 25.0314 136.923 27.4547 136.923 30.85H138.923ZM135.998 22.0523C134.044 19.9031 131.395 18.865 128.173 18.865V20.865C130.931 20.865 133.005 21.7336 134.518 23.3977L135.998 22.0523ZM128.173 18.865C124.859 18.865 122.126 19.9499 120.089 22.1807L121.566 23.5293C123.17 21.7734 125.334 20.865 128.173 20.865V18.865ZM120.097 22.1727C118.046 24.3705 117.098 27.4912 117.098 31.37H119.098C119.098 27.7955 119.97 25.2395 121.559 23.5373L120.097 22.1727ZM117.098 31.37V51H119.098V31.37H117.098ZM118.098 50H112.248V52H118.098V50ZM113.248 51V30.85H111.248V51H113.248ZM113.248 30.85C113.248 27.1386 112.319 24.1453 110.307 22.0349L108.859 23.4151C110.4 25.0314 111.248 27.4547 111.248 30.85H113.248ZM110.323 22.0523C108.369 19.9031 105.72 18.865 102.498 18.865V20.865C105.256 20.865 107.33 21.7336 108.843 23.3977L110.323 22.0523ZM102.498 18.865C99.1836 18.865 96.4513 19.9499 94.4144 22.1807L95.8914 23.5293C97.4946 21.7734 99.6589 20.865 102.498 20.865V18.865ZM94.4219 22.1727C92.3706 24.3705 91.4229 27.4912 91.4229 31.37H93.4229C93.4229 27.7955 94.2953 25.2395 95.884 23.5373L94.4219 22.1727ZM91.4229 31.37V51H93.4229V31.37H91.4229ZM92.4229 50H86.5079V52H92.4229V50ZM87.5079 51V15.38H85.5079V51H87.5079ZM86.5079 16.38H92.4229V14.38H86.5079V16.38ZM91.4229 15.38V20.515H93.4229V15.38H91.4229ZM93.2698 21.0468C94.3444 19.3354 95.7694 18.0296 97.558 17.1154L96.6478 15.3346C94.5365 16.4137 92.8414 17.968 91.576 19.9832L93.2698 21.0468ZM97.5501 17.1194C99.3951 16.197 101.429 15.73 103.668 15.73V13.73C101.14 13.73 98.7974 14.2597 96.6557 15.3306L97.5501 17.1194ZM103.668 15.73C106.503 15.73 108.968 16.3651 111.093 17.6082L112.103 15.8818C109.635 14.4382 106.813 13.73 103.668 13.73V15.73ZM111.093 17.6082C113.194 18.837 114.767 20.6393 115.815 23.0576L117.65 22.2624C116.445 19.4807 114.595 17.3397 112.103 15.8818L111.093 17.6082ZM117.663 23.0286C118.579 20.7168 120.082 18.9388 122.19 17.6661L121.156 15.9539C118.671 17.4545 116.88 19.5765 115.803 22.2914L117.663 23.0286ZM122.19 17.6661C124.323 16.3784 126.699 15.73 129.343 15.73V13.73C126.354 13.73 123.617 14.4683 121.156 15.9539L122.19 17.6661ZM203.721 16.485L203.246 17.3649L203.252 17.3686L203.259 17.3722L203.721 16.485ZM208.856 21.62L207.978 22.1L207.978 22.1L208.856 21.62ZM210.741 51V52H211.741V51H210.741ZM204.891 51H203.891V52H204.891V51ZM202.226 22.725L201.486 23.3977L201.494 23.4065L201.502 23.4151L202.226 22.725ZM187.796 22.855L188.527 23.5374L188.534 23.5293L187.796 22.855ZM185.066 51V52H186.066V51H185.066ZM179.216 51H178.216V52H179.216V51ZM176.551 22.725L175.811 23.3977L175.819 23.4065L175.827 23.4151L176.551 22.725ZM162.121 22.855L162.852 23.5374L162.859 23.5293L162.121 22.855ZM159.391 51V52H160.391V51H159.391ZM153.476 51H152.476V52H153.476V51ZM153.476 15.38V14.38H152.476V15.38H153.476ZM159.391 15.38H160.391V14.38H159.391V15.38ZM159.391 20.515H158.391V23.9881L160.238 21.0468L159.391 20.515ZM164.071 16.225L163.623 15.3305L163.616 15.3346L164.071 16.225ZM178.566 16.745L178.061 17.6082L178.061 17.6082L178.566 16.745ZM183.701 22.66L182.783 23.0576L183.742 25.2695L184.63 23.0286L183.701 22.66ZM188.641 16.81L189.158 17.6661L189.158 17.6661L188.641 16.81ZM196.311 15.73C198.939 15.73 201.242 16.2832 203.246 17.3649L204.196 15.6051C201.866 14.3468 199.229 13.73 196.311 13.73V15.73ZM203.259 17.3722C205.237 18.4007 206.81 19.9642 207.978 22.1L209.733 21.14C208.388 18.6825 206.538 16.8226 204.182 15.5978L203.259 17.3722ZM207.978 22.1C209.136 24.2163 209.741 26.837 209.741 30.005H211.741C211.741 26.5864 211.088 23.6171 209.733 21.14L207.978 22.1ZM209.741 30.005V51H211.741V30.005H209.741ZM210.741 50H204.891V52H210.741V50ZM205.891 51V30.85H203.891V51H205.891ZM205.891 30.85C205.891 27.1386 204.962 24.1453 202.949 22.0349L201.502 23.4151C203.043 25.0314 203.891 27.4547 203.891 30.85H205.891ZM202.966 22.0523C201.012 19.9031 198.363 18.865 195.141 18.865V20.865C197.899 20.865 199.973 21.7336 201.486 23.3977L202.966 22.0523ZM195.141 18.865C191.826 18.865 189.094 19.9499 187.057 22.1807L188.534 23.5293C190.137 21.7734 192.302 20.865 195.141 20.865V18.865ZM187.065 22.1727C185.013 24.3705 184.066 27.4912 184.066 31.37H186.066C186.066 27.7955 186.938 25.2395 188.527 23.5373L187.065 22.1727ZM184.066 31.37V51H186.066V31.37H184.066ZM185.066 50H179.216V52H185.066V50ZM180.216 51V30.85H178.216V51H180.216ZM180.216 30.85C180.216 27.1386 179.287 24.1453 177.274 22.0349L175.827 23.4151C177.368 25.0314 178.216 27.4547 178.216 30.85H180.216ZM177.291 22.0523C175.337 19.9031 172.688 18.865 169.466 18.865V20.865C172.224 20.865 174.298 21.7336 175.811 23.3977L177.291 22.0523ZM169.466 18.865C166.151 18.865 163.419 19.9499 161.382 22.1807L162.859 23.5293C164.462 21.7734 166.627 20.865 169.466 20.865V18.865ZM161.39 22.1727C159.338 24.3705 158.391 27.4912 158.391 31.37H160.391C160.391 27.7955 161.263 25.2395 162.852 23.5373L161.39 22.1727ZM158.391 31.37V51H160.391V31.37H158.391ZM159.391 50H153.476V52H159.391V50ZM154.476 51V15.38H152.476V51H154.476ZM153.476 16.38H159.391V14.38H153.476V16.38ZM158.391 15.38V20.515H160.391V15.38H158.391ZM160.238 21.0468C161.312 19.3354 162.737 18.0296 164.526 17.1154L163.616 15.3346C161.504 16.4137 159.809 17.968 158.544 19.9832L160.238 21.0468ZM164.518 17.1194C166.363 16.197 168.397 15.73 170.636 15.73V13.73C168.108 13.73 165.765 14.2597 163.623 15.3306L164.518 17.1194ZM170.636 15.73C173.471 15.73 175.936 16.3651 178.061 17.6082L179.071 15.8818C176.602 14.4382 173.781 13.73 170.636 13.73V15.73ZM178.061 17.6082C180.162 18.837 181.735 20.6393 182.783 23.0576L184.618 22.2624C183.413 19.4807 181.563 17.3397 179.071 15.8818L178.061 17.6082ZM184.63 23.0286C185.547 20.7168 187.05 18.9388 189.158 17.6661L188.124 15.9539C185.638 17.4545 183.848 19.5765 182.771 22.2914L184.63 23.0286ZM189.158 17.6661C191.29 16.3784 193.667 15.73 196.311 15.73V13.73C193.321 13.73 190.584 14.4683 188.124 15.9539L189.158 17.6661ZM252.033 15.38H253.033V14.38H252.033V15.38ZM252.033 51V52H253.033V51H252.033ZM246.118 51H245.118V52H246.118V51ZM246.118 45.735H247.118V42.2198L245.268 45.2086L246.118 45.735ZM241.373 50.025L241.821 50.9195L241.828 50.9156L241.373 50.025ZM227.268 49.83L226.801 50.7138L226.807 50.7174L226.814 50.7209L227.268 49.83ZM222.003 44.63L221.126 45.11L221.13 45.1163L221.133 45.1226L222.003 44.63ZM220.118 15.38V14.38H219.118V15.38H220.118ZM225.968 15.38H226.968V14.38H225.968V15.38ZM228.633 43.59L227.902 44.2718L227.91 44.2801L228.633 43.59ZM243.388 43.46L242.657 42.7777L242.657 42.7777L243.388 43.46ZM246.118 15.38V14.38H245.118V15.38H246.118ZM251.033 15.38V51H253.033V15.38H251.033ZM252.033 50H246.118V52H252.033V50ZM247.118 51V45.735H245.118V51H247.118ZM245.268 45.2086C244.244 46.8627 242.804 48.1715 240.919 49.1344L241.828 50.9156C244.016 49.7985 245.739 48.2473 246.969 46.2614L245.268 45.2086ZM240.926 49.1306C239.084 50.0518 237.029 50.52 234.743 50.52V52.52C237.311 52.52 239.676 51.9915 241.821 50.9194L240.926 49.1306ZM234.743 50.52C232.109 50.52 229.776 49.9859 227.723 48.9391L226.814 50.7209C229.181 51.9274 231.831 52.52 234.743 52.52V50.52ZM227.736 48.9462C225.705 47.8706 224.085 46.2776 222.874 44.1374L221.133 45.1226C222.522 47.5757 224.412 49.4494 226.801 50.7138L227.736 48.9462ZM222.881 44.15C221.723 42.0337 221.118 39.413 221.118 36.245H219.118C219.118 39.6636 219.771 42.6329 221.126 45.11L222.881 44.15ZM221.118 36.245V15.38H219.118V36.245H221.118ZM220.118 16.38H225.968V14.38H220.118V16.38ZM224.968 15.38V35.465H226.968V15.38H224.968ZM224.968 35.465C224.968 39.1386 225.9 42.1236 227.902 44.2717L229.365 42.9083C227.813 41.2431 226.968 38.8114 226.968 35.465H224.968ZM227.91 44.2801C229.911 46.3795 232.621 47.385 235.913 47.385V45.385C233.053 45.385 230.909 44.5272 229.357 42.8999L227.91 44.2801ZM235.913 47.385C239.298 47.385 242.075 46.3325 244.12 44.1423L242.657 42.7777C241.062 44.4875 238.856 45.385 235.913 45.385V47.385ZM244.12 44.1423C246.171 41.9445 247.118 38.8238 247.118 34.945H245.118C245.118 38.5195 244.246 41.0755 242.657 42.7777L244.12 44.1423ZM247.118 34.945V15.38H245.118V34.945H247.118ZM246.118 16.38H252.033V14.38H246.118V16.38ZM267.936 21.165H266.936L268.826 21.6198L267.936 21.165ZM272.356 16.42L271.855 15.5541L271.847 15.5591L272.356 16.42ZM279.441 14.73H280.441V13.73H279.441V14.73ZM279.441 20.84V21.84H280.441V20.84H279.441ZM267.936 51V52H268.936V51H267.936ZM262.021 51H261.021V52H262.021V51ZM262.021 15.38V14.38H261.021V15.38H262.021ZM267.936 15.38H268.936V14.38H267.936V15.38ZM268.826 21.6198C269.783 19.7462 271.126 18.3079 272.864 17.2809L271.847 15.5591C269.771 16.7854 268.168 18.5105 267.045 20.7102L268.826 21.6198ZM272.856 17.2859C274.622 16.2653 276.803 15.73 279.441 15.73V13.73C276.532 13.73 273.989 14.3214 271.855 15.5541L272.856 17.2859ZM278.441 14.73V20.84H280.441V14.73H278.441ZM279.441 19.84H277.881V21.84H279.441V19.84ZM277.881 19.84C274.39 19.84 271.594 20.7907 269.687 22.8598C267.794 24.9134 266.936 27.8985 266.936 31.63H268.936C268.936 28.1682 269.735 25.7582 271.157 24.2152C272.565 22.6876 274.742 21.84 277.881 21.84V19.84ZM266.936 31.63V51H268.936V31.63H266.936ZM267.936 50H262.021V52H267.936V50ZM263.021 51V15.38H261.021V51H263.021ZM262.021 16.38H267.936V14.38H262.021V16.38ZM266.936 15.38V21.165H268.936V15.38H266.936ZM286.269 23.505L287.149 23.9799L287.152 23.9742L286.269 23.505ZM292.314 17.07L291.81 16.2062L291.803 16.2099L292.314 17.07ZM309.084 16.81L308.579 17.6732L308.579 17.6732L309.084 16.81ZM314.219 21.88L313.344 22.3641L315.219 21.88H314.219ZM314.219 15.38V14.38H313.219V15.38H314.219ZM320.199 15.38H321.199V14.38H320.199V15.38ZM320.199 51V52H321.199V51H320.199ZM314.219 51H313.219V52H314.219V51ZM314.219 44.37H315.219V40.5525L313.347 43.8797L314.219 44.37ZM308.954 49.57L309.459 50.4332L309.463 50.4303L308.954 49.57ZM292.314 49.245L291.793 50.0986L291.793 50.0986L292.314 49.245ZM286.269 42.68L287.155 42.2165L287.155 42.2165L286.269 42.68ZM308.174 21.555L307.662 22.4143L307.674 22.4214L307.686 22.4282L308.174 21.555ZM296.084 21.49L295.588 20.6218L295.588 20.6218L296.084 21.49ZM291.729 26.04L292.607 26.5175L292.607 26.5175L291.729 26.04ZM291.729 40.21L290.846 40.6796L290.85 40.6875L291.729 40.21ZM296.084 44.825L295.572 45.6843L295.58 45.6888L295.588 45.6932L296.084 44.825ZM308.174 44.825L308.67 45.6933L308.676 45.6895L308.174 44.825ZM312.594 40.21L313.472 40.6875L313.477 40.6796L312.594 40.21ZM285.059 33.06C285.059 29.557 285.767 26.5406 287.149 23.9799L285.389 23.0301C283.824 25.9294 283.059 29.283 283.059 33.06H285.059ZM287.152 23.9742C288.544 21.3533 290.434 19.3477 292.824 17.9301L291.803 16.2099C289.08 17.8256 286.94 20.11 285.386 23.0358L287.152 23.9742ZM292.818 17.9338C295.257 16.5109 297.963 15.795 300.959 15.795V13.795C297.628 13.795 294.571 14.5957 291.81 16.2062L292.818 17.9338ZM300.959 15.795C303.932 15.795 306.46 16.4339 308.579 17.6732L309.589 15.9468C307.114 14.4995 304.225 13.795 300.959 13.795V15.795ZM308.579 17.6732C310.743 18.939 312.316 20.5062 313.344 22.3641L315.094 21.3959C313.868 19.1805 312.018 17.3677 309.589 15.9468L308.579 17.6732ZM315.219 21.88V15.38H313.219V21.88H315.219ZM314.219 16.38H320.199V14.38H314.219V16.38ZM319.199 15.38V51H321.199V15.38H319.199ZM320.199 50H314.219V52H320.199V50ZM315.219 51V44.37H313.219V51H315.219ZM313.347 43.8797C312.275 45.7864 310.654 47.3998 308.444 48.7097L309.463 50.4303C311.933 48.9669 313.823 47.1136 315.09 44.8603L313.347 43.8797ZM308.449 48.7068C306.328 49.9473 303.821 50.585 300.894 50.585V52.585C304.12 52.585 306.986 51.8793 309.459 50.4332L308.449 48.7068ZM300.894 50.585C297.903 50.585 295.225 49.8502 292.835 48.3914L291.793 50.0986C294.515 51.7598 297.557 52.585 300.894 52.585V50.585ZM292.835 48.3914C290.442 46.9317 288.549 44.8827 287.155 42.2165L285.383 43.1435C286.935 46.1107 289.072 48.4383 291.793 50.0986L292.835 48.3914ZM287.155 42.2165C285.766 39.5607 285.059 36.5167 285.059 33.06H283.059C283.059 36.7966 283.825 40.1659 285.383 43.1435L287.155 42.2165ZM315.219 33.125C315.219 30.3023 314.649 27.7922 313.472 25.6275L311.715 26.5825C312.705 28.4045 313.219 30.5744 313.219 33.125H315.219ZM313.472 25.6275C312.305 23.4789 310.7 21.8199 308.661 20.6818L307.686 22.4282C309.374 23.3701 310.716 24.7445 311.715 26.5825L313.472 25.6275ZM308.685 20.6957C306.704 19.5162 304.511 18.93 302.129 18.93V20.93C304.167 20.93 306.004 21.4271 307.662 22.4143L308.685 20.6957ZM302.129 18.93C299.754 18.93 297.567 19.4907 295.588 20.6218L296.58 22.3582C298.24 21.4093 300.083 20.93 302.129 20.93V18.93ZM295.588 20.6218C293.593 21.7615 292.015 23.4199 290.85 25.5625L292.607 26.5175C293.609 24.6735 294.934 23.2985 296.58 22.3582L295.588 20.6218ZM290.85 25.5625C289.674 27.7272 289.104 30.2373 289.104 33.06H291.104C291.104 30.5094 291.617 28.3395 292.607 26.5175L290.85 25.5625ZM289.104 33.06C289.104 35.9238 289.673 38.474 290.846 40.6796L292.612 39.7404C291.618 37.8727 291.104 35.6562 291.104 33.06H289.104ZM290.85 40.6875C292.013 42.8271 293.587 44.5025 295.572 45.6843L296.595 43.9657C294.941 42.9809 293.611 41.5795 292.607 39.7325L290.85 40.6875ZM295.588 45.6932C297.567 46.8243 299.754 47.385 302.129 47.385V45.385C300.083 45.385 298.24 44.9057 296.58 43.9568L295.588 45.6932ZM302.129 47.385C304.503 47.385 306.69 46.8243 308.67 45.6932L307.678 43.9568C306.017 44.9057 304.174 45.385 302.129 45.385V47.385ZM308.676 45.6895C310.707 44.5091 312.306 42.833 313.472 40.6875L311.715 39.7325C310.714 41.5736 309.367 42.9742 307.671 43.9605L308.676 45.6895ZM313.477 40.6796C314.649 38.4762 315.219 35.9484 315.219 33.125H313.219C313.219 35.675 312.705 37.8704 311.711 39.7404L313.477 40.6796ZM336.109 22.01H335.109V25.7756L336.978 22.5061L336.109 22.01ZM341.439 16.81L341.937 17.6773L341.937 17.6773L341.439 16.81ZM358.079 17.07L358.59 16.2099L358.59 16.2099L358.079 17.07ZM364.124 23.505L363.241 23.9742L363.244 23.9799L364.124 23.505ZM364.124 42.68L365.011 43.1435L365.011 43.1435L364.124 42.68ZM358.014 49.245L357.5 48.3875L357.494 48.3914L358.014 49.245ZM341.309 49.57L340.805 50.4332L340.812 50.4373L341.309 49.57ZM336.109 44.435L336.981 43.9447L335.109 40.6175V44.435H336.109ZM336.109 51V52H337.109V51H336.109ZM330.194 51H329.194V52H330.194V51ZM330.194 2.9V1.9H329.194V2.9H330.194ZM336.109 2.9H337.109V1.9H336.109V2.9ZM358.664 26.04L359.543 25.5625L359.543 25.5625L358.664 26.04ZM354.244 21.49L353.748 22.3583L353.757 22.3632L354.244 21.49ZM342.154 21.555L342.651 22.4233L342.657 22.4195L342.154 21.555ZM337.734 26.17L336.859 25.6859L336.856 25.6925L337.734 26.17ZM337.734 40.21L336.852 40.6796L336.858 40.6909L336.864 40.7021L337.734 40.21ZM342.154 44.825L341.643 45.6843L341.655 45.6914L341.667 45.6982L342.154 44.825ZM354.244 44.825L354.741 45.6933L354.747 45.6895L354.244 44.825ZM358.664 40.21L359.543 40.6875L359.547 40.6796L358.664 40.21ZM336.978 22.5061C338.094 20.5529 339.735 18.9414 341.937 17.6773L340.942 15.9427C338.464 17.3652 336.552 19.2205 335.241 21.5139L336.978 22.5061ZM341.937 17.6773C344.11 16.4301 346.6 15.795 349.434 15.795V13.795C346.289 13.795 343.449 14.5033 340.942 15.9427L341.937 17.6773ZM349.434 15.795C352.476 15.795 355.179 16.5122 357.569 17.9301L358.59 16.2099C355.866 14.5945 352.806 13.795 349.434 13.795V15.795ZM357.569 17.9301C359.959 19.3477 361.849 21.3533 363.241 23.9742L365.008 23.0358C363.453 20.11 361.313 17.8256 358.59 16.2099L357.569 17.9301ZM363.244 23.9799C364.626 26.5406 365.334 29.557 365.334 33.06H367.334C367.334 29.283 366.569 25.9294 365.004 23.0301L363.244 23.9799ZM365.334 33.06C365.334 36.5167 364.628 39.5607 363.238 42.2165L365.011 43.1435C366.568 40.1659 367.334 36.7966 367.334 33.06H365.334ZM363.238 42.2165C361.846 44.8784 359.934 46.9268 357.5 48.3875L358.529 50.1025C361.294 48.4432 363.456 46.1149 365.011 43.1435L363.238 42.2165ZM357.494 48.3914C355.103 49.8502 352.425 50.585 349.434 50.585V52.585C352.771 52.585 355.813 51.7598 358.535 50.0986L357.494 48.3914ZM349.434 50.585C346.508 50.585 343.976 49.9475 341.807 48.7027L340.812 50.4373C343.323 51.8792 346.208 52.585 349.434 52.585V50.585ZM341.814 48.7068C339.653 47.4425 338.054 45.8529 336.981 43.9447L335.238 44.9253C336.505 47.1771 338.373 49.0108 340.805 50.4332L341.814 48.7068ZM335.109 44.435V51H337.109V44.435H335.109ZM336.109 50H330.194V52H336.109V50ZM331.194 51V2.9H329.194V51H331.194ZM330.194 3.9H336.109V1.9H330.194V3.9ZM335.109 2.9V22.01H337.109V2.9H335.109ZM361.289 33.06C361.289 30.2373 360.72 27.7272 359.543 25.5625L357.786 26.5175C358.776 28.3395 359.289 30.5094 359.289 33.06H361.289ZM359.543 25.5625C358.375 23.4139 356.771 21.7549 354.732 20.6168L353.757 22.3632C355.445 23.3051 356.787 24.6795 357.786 26.5175L359.543 25.5625ZM354.741 20.6218C352.761 19.4907 350.574 18.93 348.199 18.93V20.93C350.245 20.93 352.088 21.4093 353.748 22.3582L354.741 20.6218ZM348.199 18.93C345.857 18.93 343.669 19.5179 341.652 20.6905L342.657 22.4195C344.367 21.4254 346.208 20.93 348.199 20.93V18.93ZM341.658 20.6868C339.662 21.8275 338.065 23.5071 336.859 25.6859L338.609 26.6541C339.658 24.7595 341.007 23.3625 342.651 22.4232L341.658 20.6868ZM336.856 25.6925C335.681 27.8549 335.109 30.3425 335.109 33.125H337.109C337.109 30.6208 337.622 28.4718 338.613 26.6475L336.856 25.6925ZM335.109 33.125C335.109 35.9484 335.68 38.4762 336.852 40.6796L338.617 39.7404C337.623 37.8704 337.109 35.675 337.109 33.125H335.109ZM336.864 40.7021C338.069 42.8343 339.661 44.5047 341.643 45.6843L342.666 43.9657C341.008 42.9786 339.653 41.5724 338.605 39.7179L336.864 40.7021ZM341.667 45.6982C343.682 46.8227 345.865 47.385 348.199 47.385V45.385C346.201 45.385 344.354 44.9073 342.642 43.9518L341.667 45.6982ZM348.199 47.385C350.574 47.385 352.761 46.8243 354.741 45.6932L353.748 43.9568C352.088 44.9057 350.245 45.385 348.199 45.385V47.385ZM354.747 45.6895C356.777 44.5091 358.377 42.833 359.543 40.6875L357.786 39.7325C356.785 41.5736 355.438 42.9742 353.742 43.9605L354.747 45.6895ZM359.547 40.6796C360.721 38.474 361.289 35.9238 361.289 33.06H359.289C359.289 35.6562 358.775 37.8727 357.782 39.7404L359.547 40.6796ZM380.035 22.01H379.035V25.7756L380.903 22.5061L380.035 22.01ZM385.365 16.81L385.863 17.6773L385.863 17.6773L385.365 16.81ZM402.005 17.07L402.515 16.2099L402.515 16.2099L402.005 17.07ZM408.05 23.505L407.167 23.9742L407.17 23.9799L408.05 23.505ZM408.05 42.68L408.936 43.1435L408.936 43.1435L408.05 42.68ZM401.94 49.245L401.426 48.3875L401.419 48.3914L401.94 49.245ZM385.235 49.57L384.73 50.4332L384.737 50.4373L385.235 49.57ZM380.035 44.435L380.907 43.9447L379.035 40.6175V44.435H380.035ZM380.035 51V52H381.035V51H380.035ZM374.12 51H373.12V52H374.12V51ZM374.12 2.9V1.9H373.12V2.9H374.12ZM380.035 2.9H381.035V1.9H380.035V2.9ZM402.59 26.04L403.469 25.5625L403.469 25.5625L402.59 26.04ZM398.17 21.49L397.674 22.3583L397.683 22.3632L398.17 21.49ZM386.08 21.555L386.576 22.4233L386.583 22.4195L386.08 21.555ZM381.66 26.17L380.785 25.6859L380.782 25.6925L381.66 26.17ZM381.66 40.21L380.777 40.6796L380.783 40.6909L380.79 40.7021L381.66 40.21ZM386.08 44.825L385.569 45.6843L385.581 45.6914L385.593 45.6982L386.08 44.825ZM398.17 44.825L398.666 45.6933L398.673 45.6895L398.17 44.825ZM402.59 40.21L403.469 40.6875L403.473 40.6796L402.59 40.21ZM380.903 22.5061C382.02 20.5529 383.661 18.9414 385.863 17.6773L384.867 15.9427C382.389 17.3652 380.477 19.2205 379.167 21.5139L380.903 22.5061ZM385.863 17.6773C388.036 16.4301 390.526 15.795 393.36 15.795V13.795C390.215 13.795 387.375 14.5033 384.867 15.9427L385.863 17.6773ZM393.36 15.795C396.402 15.795 399.105 16.5122 401.495 17.9301L402.515 16.2099C399.792 14.5945 396.732 13.795 393.36 13.795V15.795ZM401.495 17.9301C403.885 19.3477 405.775 21.3533 407.167 23.9742L408.933 23.0358C407.379 20.11 405.239 17.8256 402.515 16.2099L401.495 17.9301ZM407.17 23.9799C408.552 26.5406 409.26 29.557 409.26 33.06H411.26C411.26 29.283 410.495 25.9294 408.93 23.0301L407.17 23.9799ZM409.26 33.06C409.26 36.5167 408.553 39.5607 407.164 42.2165L408.936 43.1435C410.494 40.1659 411.26 36.7966 411.26 33.06H409.26ZM407.164 42.2165C405.772 44.8784 403.86 46.9268 401.426 48.3875L402.455 50.1025C405.22 48.4432 407.382 46.1149 408.936 43.1435L407.164 42.2165ZM401.419 48.3914C399.029 49.8502 396.351 50.585 393.36 50.585V52.585C396.697 52.585 399.739 51.7598 402.461 50.0986L401.419 48.3914ZM393.36 50.585C390.433 50.585 387.901 49.9475 385.733 48.7027L384.737 50.4373C387.249 51.8792 390.134 52.585 393.36 52.585V50.585ZM385.74 48.7068C383.579 47.4425 381.98 45.8529 380.907 43.9447L379.164 44.9253C380.43 47.1771 382.299 49.0108 384.73 50.4332L385.74 48.7068ZM379.035 44.435V51H381.035V44.435H379.035ZM380.035 50H374.12V52H380.035V50ZM375.12 51V2.9H373.12V51H375.12ZM374.12 3.9H380.035V1.9H374.12V3.9ZM379.035 2.9V22.01H381.035V2.9H379.035ZM405.215 33.06C405.215 30.2373 404.645 27.7272 403.469 25.5625L401.712 26.5175C402.702 28.3395 403.215 30.5094 403.215 33.06H405.215ZM403.469 25.5625C402.301 23.4139 400.697 21.7549 398.658 20.6168L397.683 22.3632C399.37 23.3051 400.713 24.6795 401.712 26.5175L403.469 25.5625ZM398.666 20.6218C396.687 19.4907 394.499 18.93 392.125 18.93V20.93C394.171 20.93 396.013 21.4093 397.674 22.3582L398.666 20.6218ZM392.125 18.93C389.783 18.93 387.594 19.5179 385.578 20.6905L386.583 22.4195C388.293 21.4254 390.134 20.93 392.125 20.93V18.93ZM385.584 20.6868C383.588 21.8275 381.991 23.5071 380.785 25.6859L382.535 26.6541C383.583 24.7595 384.933 23.3625 386.576 22.4232L385.584 20.6868ZM380.782 25.6925C379.606 27.8549 379.035 30.3425 379.035 33.125H381.035C381.035 30.6208 381.547 28.4718 382.539 26.6475L380.782 25.6925ZM379.035 33.125C379.035 35.9484 379.605 38.4762 380.777 40.6796L382.543 39.7404C381.548 37.8704 381.035 35.675 381.035 33.125H379.035ZM380.79 40.7021C381.995 42.8343 383.587 44.5047 385.569 45.6843L386.592 43.9657C384.933 42.9786 383.579 41.5724 382.531 39.7179L380.79 40.7021ZM385.593 45.6982C387.608 46.8227 389.791 47.385 392.125 47.385V45.385C390.126 45.385 388.28 44.9073 386.568 43.9518L385.593 45.6982ZM392.125 47.385C394.499 47.385 396.687 46.8243 398.666 45.6932L397.674 43.9568C396.013 44.9057 394.171 45.385 392.125 45.385V47.385ZM398.673 45.6895C400.703 44.5091 402.303 42.833 403.469 40.6875L401.712 39.7325C400.711 41.5736 399.364 42.9742 397.668 43.9605L398.673 45.6895ZM403.473 40.6796C404.646 38.474 405.215 35.9238 405.215 33.06H403.215C403.215 35.6562 402.701 37.8727 401.707 39.7404L403.473 40.6796ZM418.241 8.425L418.948 7.71789L418.948 7.71789L418.241 8.425ZM418.241 2.705L418.948 3.4121L418.948 3.4121L418.241 2.705ZM423.831 2.705L423.104 3.39162L423.114 3.40201L423.124 3.4121L423.831 2.705ZM423.831 8.425L423.124 7.71789L423.114 7.72799L423.104 7.73837L423.831 8.425ZM423.961 15.38H424.961V14.38H423.961V15.38ZM423.961 51V52H424.961V51H423.961ZM418.046 51H417.046V52H418.046V51ZM418.046 15.38V14.38H417.046V15.38H418.046ZM421.101 8.595C420.233 8.595 419.536 8.30591 418.948 7.71789L417.534 9.1321C418.506 10.1041 419.715 10.595 421.101 10.595V8.595ZM418.948 7.71789C418.36 7.12987 418.071 6.4328 418.071 5.565H416.071C416.071 6.95052 416.562 8.16012 417.534 9.1321L418.948 7.71789ZM418.071 5.565C418.071 4.69719 418.36 4.00012 418.948 3.4121L417.534 1.99789C416.562 2.96987 416.071 4.17947 416.071 5.565H418.071ZM418.948 3.4121C419.536 2.82409 420.233 2.535 421.101 2.535V0.534998C419.715 0.534998 418.506 1.02591 417.534 1.99789L418.948 3.4121ZM421.101 2.535C421.912 2.535 422.558 2.81384 423.104 3.39162L424.558 2.01837C423.63 1.03615 422.456 0.534998 421.101 0.534998V2.535ZM423.124 3.4121C423.712 4.00012 424.001 4.69719 424.001 5.565H426.001C426.001 4.17947 425.51 2.96987 424.538 1.99789L423.124 3.4121ZM424.001 5.565C424.001 6.4328 423.712 7.12987 423.124 7.71789L424.538 9.1321C425.51 8.16012 426.001 6.95052 426.001 5.565H424.001ZM423.104 7.73837C422.558 8.31615 421.912 8.595 421.101 8.595V10.595C422.456 10.595 423.63 10.0938 424.558 9.11162L423.104 7.73837ZM422.961 15.38V51H424.961V15.38H422.961ZM423.961 50H418.046V52H423.961V50ZM419.046 51V15.38H417.046V51H419.046ZM418.046 16.38H423.961V14.38H418.046V16.38Z" fill="black"/>
</svg>
