<svg width="454" height="57" viewBox="0 0 454 57" fill="none" xmlns="http://www.w3.org/2000/svg">
<path d="M20.685 16.73C23.3717 16.73 25.7983 17.315 27.965 18.485C30.1317 19.6117 31.8217 21.3233 33.035 23.62C34.2917 25.9167 34.92 28.7117 34.92 32.005V53H29.07V32.85C29.07 29.2967 28.1817 26.5883 26.405 24.725C24.6283 22.8183 22.2017 21.865 19.125 21.865C16.005 21.865 13.5133 22.84 11.65 24.79C9.83 26.74 8.92 29.5783 8.92 33.305V53H3.005V4.9H8.92V22.45C10.09 20.63 11.6933 19.2217 13.73 18.225C15.81 17.2283 18.1283 16.73 20.685 16.73ZM44.9721 35.06C44.9721 31.42 45.7088 28.235 47.1821 25.505C48.6555 22.7317 50.6705 20.5867 53.2271 19.07C55.8271 17.5533 58.7088 16.795 61.8721 16.795C64.9921 16.795 67.7005 17.4667 69.9971 18.81C72.2938 20.1533 74.0055 21.8433 75.1321 23.88V17.38H81.1121V53H75.1321V46.37C73.9621 48.45 72.2071 50.1833 69.8671 51.57C67.5705 52.9133 64.8838 53.585 61.8071 53.585C58.6438 53.585 55.7838 52.805 53.2271 51.245C50.6705 49.685 48.6555 47.4967 47.1821 44.68C45.7088 41.8633 44.9721 38.6567 44.9721 35.06ZM75.1321 35.125C75.1321 32.4383 74.5905 30.0983 73.5071 28.105C72.4238 26.1117 70.9505 24.595 69.0871 23.555C67.2671 22.4717 65.2521 21.93 63.0421 21.93C60.8321 21.93 58.8171 22.45 56.9971 23.49C55.1771 24.53 53.7255 26.0467 52.6421 28.04C51.5588 30.0333 51.0171 32.3733 51.0171 35.06C51.0171 37.79 51.5588 40.1733 52.6421 42.21C53.7255 44.2033 55.1771 45.7417 56.9971 46.825C58.8171 47.865 60.8321 48.385 63.0421 48.385C65.2521 48.385 67.2671 47.865 69.0871 46.825C70.9505 45.7417 72.4238 44.2033 73.5071 42.21C74.5905 40.1733 75.1321 37.8117 75.1321 35.125ZM136.543 16.73C139.316 16.73 141.786 17.315 143.953 18.485C146.12 19.6117 147.831 21.3233 149.088 23.62C150.345 25.9167 150.973 28.7117 150.973 32.005V53H145.123V32.85C145.123 29.2967 144.235 26.5883 142.458 24.725C140.725 22.8183 138.363 21.865 135.373 21.865C132.296 21.865 129.848 22.8617 128.028 24.855C126.208 26.805 125.298 29.6433 125.298 33.37V53H119.448V32.85C119.448 29.2967 118.56 26.5883 116.783 24.725C115.05 22.8183 112.688 21.865 109.698 21.865C106.621 21.865 104.173 22.8617 102.353 24.855C100.533 26.805 99.6229 29.6433 99.6229 33.37V53H93.7079V17.38H99.6229V22.515C100.793 20.6517 102.353 19.2217 104.303 18.225C106.296 17.2283 108.485 16.73 110.868 16.73C113.858 16.73 116.501 17.4017 118.798 18.745C121.095 20.0883 122.806 22.06 123.933 24.66C124.93 22.1467 126.576 20.1967 128.873 18.81C131.17 17.4233 133.726 16.73 136.543 16.73ZM206.111 16.73C208.884 16.73 211.354 17.315 213.521 18.485C215.687 19.6117 217.399 21.3233 218.656 23.62C219.912 25.9167 220.541 28.7117 220.541 32.005V53H214.691V32.85C214.691 29.2967 213.802 26.5883 212.026 24.725C210.292 22.8183 207.931 21.865 204.941 21.865C201.864 21.865 199.416 22.8617 197.596 24.855C195.776 26.805 194.866 29.6433 194.866 33.37V53H189.016V32.85C189.016 29.2967 188.127 26.5883 186.351 24.725C184.617 22.8183 182.256 21.865 179.266 21.865C176.189 21.865 173.741 22.8617 171.921 24.855C170.101 26.805 169.191 29.6433 169.191 33.37V53H163.276V17.38H169.191V22.515C170.361 20.6517 171.921 19.2217 173.871 18.225C175.864 17.2283 178.052 16.73 180.436 16.73C183.426 16.73 186.069 17.4017 188.366 18.745C190.662 20.0883 192.374 22.06 193.501 24.66C194.497 22.1467 196.144 20.1967 198.441 18.81C200.737 17.4233 203.294 16.73 206.111 16.73ZM264.433 17.38V53H258.518V47.735C257.392 49.555 255.81 50.985 253.773 52.025C251.78 53.0217 249.57 53.52 247.143 53.52C244.37 53.52 241.878 52.9567 239.668 51.83C237.458 50.66 235.703 48.9267 234.403 46.63C233.147 44.3333 232.518 41.5383 232.518 38.245V17.38H238.368V37.465C238.368 40.975 239.257 43.6833 241.033 45.59C242.81 47.4533 245.237 48.385 248.313 48.385C251.477 48.385 253.968 47.41 255.788 45.46C257.608 43.51 258.518 40.6717 258.518 36.945V17.38H264.433ZM282.936 23.165C283.976 21.1283 285.449 19.5467 287.356 18.42C289.306 17.2933 291.667 16.73 294.441 16.73V22.84H292.881C286.251 22.84 282.936 26.4367 282.936 33.63V53H277.021V17.38H282.936V23.165ZM301.659 35.06C301.659 31.42 302.395 28.235 303.869 25.505C305.342 22.7317 307.357 20.5867 309.914 19.07C312.514 17.5533 315.395 16.795 318.559 16.795C321.679 16.795 324.387 17.4667 326.684 18.81C328.98 20.1533 330.692 21.8433 331.819 23.88V17.38H337.799V53H331.819V46.37C330.649 48.45 328.894 50.1833 326.554 51.57C324.257 52.9133 321.57 53.585 318.494 53.585C315.33 53.585 312.47 52.805 309.914 51.245C307.357 49.685 305.342 47.4967 303.869 44.68C302.395 41.8633 301.659 38.6567 301.659 35.06ZM331.819 35.125C331.819 32.4383 331.277 30.0983 330.194 28.105C329.11 26.1117 327.637 24.595 325.774 23.555C323.954 22.4717 321.939 21.93 319.729 21.93C317.519 21.93 315.504 22.45 313.684 23.49C311.864 24.53 310.412 26.0467 309.329 28.04C308.245 30.0333 307.704 32.3733 307.704 35.06C307.704 37.79 308.245 40.1733 309.329 42.21C310.412 44.2033 311.864 45.7417 313.684 46.825C315.504 47.865 317.519 48.385 319.729 48.385C321.939 48.385 323.954 47.865 325.774 46.825C327.637 45.7417 329.11 44.2033 330.194 42.21C331.277 40.1733 331.819 37.8117 331.819 35.125ZM356.309 24.01C357.523 21.8867 359.299 20.1533 361.639 18.81C363.979 17.4667 366.644 16.795 369.634 16.795C372.841 16.795 375.723 17.5533 378.279 19.07C380.836 20.5867 382.851 22.7317 384.324 25.505C385.798 28.235 386.534 31.42 386.534 35.06C386.534 38.6567 385.798 41.8633 384.324 44.68C382.851 47.4967 380.814 49.685 378.214 51.245C375.658 52.805 372.798 53.585 369.634 53.585C366.558 53.585 363.849 52.9133 361.509 51.57C359.213 50.2267 357.479 48.515 356.309 46.435V53H350.394V4.9H356.309V24.01ZM380.489 35.06C380.489 32.3733 379.948 30.0333 378.864 28.04C377.781 26.0467 376.308 24.53 374.444 23.49C372.624 22.45 370.609 21.93 368.399 21.93C366.233 21.93 364.218 22.4717 362.354 23.555C360.534 24.595 359.061 26.1333 357.934 28.17C356.851 30.1633 356.309 32.4817 356.309 35.125C356.309 37.8117 356.851 40.1733 357.934 42.21C359.061 44.2033 360.534 45.7417 362.354 46.825C364.218 47.865 366.233 48.385 368.399 48.385C370.609 48.385 372.624 47.865 374.444 46.825C376.308 45.7417 377.781 44.2033 378.864 42.21C379.948 40.1733 380.489 37.79 380.489 35.06ZM402.835 24.01C404.049 21.8867 405.825 20.1533 408.165 18.81C410.505 17.4667 413.17 16.795 416.16 16.795C419.367 16.795 422.249 17.5533 424.805 19.07C427.362 20.5867 429.377 22.7317 430.85 25.505C432.324 28.235 433.06 31.42 433.06 35.06C433.06 38.6567 432.324 41.8633 430.85 44.68C429.377 47.4967 427.34 49.685 424.74 51.245C422.184 52.805 419.324 53.585 416.16 53.585C413.084 53.585 410.375 52.9133 408.035 51.57C405.739 50.2267 404.005 48.515 402.835 46.435V53H396.92V4.9H402.835V24.01ZM427.015 35.06C427.015 32.3733 426.474 30.0333 425.39 28.04C424.307 26.0467 422.834 24.53 420.97 23.49C419.15 22.45 417.135 21.93 414.925 21.93C412.759 21.93 410.744 22.4717 408.88 23.555C407.06 24.595 405.587 26.1333 404.46 28.17C403.377 30.1633 402.835 32.4817 402.835 35.125C402.835 37.8117 403.377 40.1733 404.46 42.21C405.587 44.2033 407.06 45.7417 408.88 46.825C410.744 47.865 412.759 48.385 414.925 48.385C417.135 48.385 419.15 47.865 420.97 46.825C422.834 45.7417 424.307 44.2033 425.39 42.21C426.474 40.1733 427.015 37.79 427.015 35.06ZM446.501 11.595C445.374 11.595 444.421 11.205 443.641 10.425C442.861 9.645 442.471 8.69166 442.471 7.565C442.471 6.43833 442.861 5.485 443.641 4.705C444.421 3.925 445.374 3.535 446.501 3.535C447.584 3.535 448.494 3.925 449.231 4.705C450.011 5.485 450.401 6.43833 450.401 7.565C450.401 8.69166 450.011 9.645 449.231 10.425C448.494 11.205 447.584 11.595 446.501 11.595ZM449.361 17.38V53H443.446V17.38H449.361Z" fill="#F9F9F9"/>
<path d="M27.965 18.485L26.5396 21.1247L26.5602 21.1358L26.5809 21.1466L27.965 18.485ZM33.035 23.62L30.3824 25.0214L30.3927 25.0408L30.4032 25.06L33.035 23.62ZM34.92 53V56H37.92V53H34.92ZM29.07 53H26.07V56H29.07V53ZM26.405 24.725L24.2102 26.7702L24.2219 26.7828L24.2338 26.7952L26.405 24.725ZM11.65 24.79L9.48103 22.7174L9.46886 22.7302L9.45683 22.743L11.65 24.79ZM8.92 53V56H11.92V53H8.92ZM3.005 53H0.00500046V56H3.005V53ZM3.005 4.9V1.9H0.00500046V4.9H3.005ZM8.92 4.9H11.92V1.9H8.92V4.9ZM8.92 22.45H5.92V32.6644L11.4435 24.0723L8.92 22.45ZM13.73 18.225L12.4336 15.5196L12.4225 15.5249L12.4113 15.5303L13.73 18.225ZM20.685 19.73C22.9204 19.73 24.8499 20.2123 26.5396 21.1247L29.3904 15.8453C26.7468 14.4177 23.8229 13.73 20.685 13.73V19.73ZM26.5809 21.1466C28.1713 21.9736 29.4349 23.2278 30.3824 25.0214L35.6876 22.2186C34.2085 19.4189 32.0921 17.2497 29.3491 15.8233L26.5809 21.1466ZM30.4032 25.06C31.3637 26.8155 31.92 29.0875 31.92 32.005H37.92C37.92 28.3358 37.2196 25.0179 35.6668 22.18L30.4032 25.06ZM31.92 32.005V53H37.92V32.005H31.92ZM34.92 50H29.07V56H34.92V50ZM32.07 53V32.85H26.07V53H32.07ZM32.07 32.85C32.07 28.8226 31.0595 25.2592 28.5762 22.6548L24.2338 26.7952C25.3039 27.9175 26.07 29.7707 26.07 32.85H32.07ZM28.5998 22.6798C26.1531 20.054 22.8705 18.865 19.125 18.865V24.865C21.5328 24.865 23.1036 25.5826 24.2102 26.7702L28.5998 22.6798ZM19.125 18.865C15.3258 18.865 12.0004 20.0809 9.48103 22.7174L13.819 26.8626C15.0263 25.5991 16.6842 24.865 19.125 24.865V18.865ZM9.45683 22.743C6.94301 25.4364 5.92 29.1218 5.92 33.305H11.92C11.92 30.0349 12.717 28.0436 13.8432 26.837L9.45683 22.743ZM5.92 33.305V53H11.92V33.305H5.92ZM8.92 50H3.005V56H8.92V50ZM6.005 53V4.9H0.00500046V53H6.005ZM3.005 7.9H8.92V1.9H3.005V7.9ZM5.92 4.9V22.45H11.92V4.9H5.92ZM11.4435 24.0723C12.3028 22.7356 13.4793 21.6876 15.0487 20.9196L12.4113 15.5303C9.90736 16.7557 7.87718 18.5244 6.39647 20.8277L11.4435 24.0723ZM15.0264 20.9304C16.6596 20.1479 18.5279 19.73 20.685 19.73V13.73C17.7288 13.73 14.9604 14.3088 12.4336 15.5196L15.0264 20.9304ZM47.1821 25.505L49.8222 26.9298L49.8269 26.9211L49.8315 26.9125L47.1821 25.505ZM53.2271 19.07L51.7155 16.4787L51.706 16.4842L51.6965 16.4898L53.2271 19.07ZM69.9971 18.81L68.4825 21.3996L68.4825 21.3996L69.9971 18.81ZM75.1321 23.88L72.507 25.3322L78.1321 23.88H75.1321ZM75.1321 17.38V14.38H72.1321V17.38H75.1321ZM81.1121 17.38H84.1121V14.38H81.1121V17.38ZM81.1121 53V56H84.1121V53H81.1121ZM75.1321 53H72.1321V56H75.1321V53ZM75.1321 46.37H78.1321V34.9175L72.5174 44.8992L75.1321 46.37ZM69.8671 51.57L71.3818 54.1596L71.3892 54.1552L71.3966 54.1509L69.8671 51.57ZM53.2271 51.245L51.6646 53.8059L51.6646 53.8059L53.2271 51.245ZM47.1821 44.68L49.8404 43.2895L49.8404 43.2895L47.1821 44.68ZM69.0871 23.555L67.5527 26.1329L67.5886 26.1542L67.6251 26.1746L69.0871 23.555ZM56.9971 23.49L55.5087 20.8853L55.5087 20.8853L56.9971 23.49ZM52.6421 28.04L55.278 29.4725L55.278 29.4725L52.6421 28.04ZM52.6421 42.21L49.9935 43.6188L49.9998 43.6307L50.0063 43.6425L52.6421 42.21ZM56.9971 46.825L55.4627 49.4029L55.4856 49.4165L55.5087 49.4297L56.9971 46.825ZM69.0871 46.825L70.5756 49.4297L70.5853 49.4242L70.595 49.4185L69.0871 46.825ZM73.5071 42.21L76.143 43.6425L76.1494 43.6307L76.1558 43.6188L73.5071 42.21ZM47.9721 35.06C47.9721 31.831 48.623 29.1518 49.8222 26.9298L44.5421 24.0802C42.7946 27.3182 41.9721 31.009 41.9721 35.06H47.9721ZM49.8315 26.9125C51.0618 24.5966 52.7017 22.8699 54.7578 21.6502L51.6965 16.4898C48.6393 18.3034 46.2492 20.8667 44.5328 24.0975L49.8315 26.9125ZM54.7388 21.6613C56.8562 20.4261 59.2118 19.795 61.8721 19.795V13.795C58.2058 13.795 54.7981 14.6805 51.7155 16.4787L54.7388 21.6613ZM61.8721 19.795C64.5525 19.795 66.7193 20.3683 68.4825 21.3996L71.5118 16.2204C68.6817 14.5651 65.4318 13.795 61.8721 13.795V19.795ZM68.4825 21.3996C70.3814 22.5102 71.6771 23.832 72.507 25.3322L77.7573 22.4278C76.3338 19.8547 74.2063 17.7964 71.5118 16.2204L68.4825 21.3996ZM78.1321 23.88V17.38H72.1321V23.88H78.1321ZM75.1321 20.38H81.1121V14.38H75.1321V20.38ZM78.1121 17.38V53H84.1121V17.38H78.1121ZM81.1121 50H75.1321V56H81.1121V50ZM78.1321 53V46.37H72.1321V53H78.1321ZM72.5174 44.8992C71.6399 46.4593 70.2892 47.8327 68.3377 48.9891L71.3966 54.1509C74.1251 52.534 76.2844 50.4407 77.7469 47.8408L72.5174 44.8992ZM68.3525 48.9804C66.5831 50.0154 64.4358 50.585 61.8071 50.585V56.585C65.3318 56.585 68.5579 55.8113 71.3818 54.1596L68.3525 48.9804ZM61.8071 50.585C59.1628 50.585 56.8489 49.9405 54.7897 48.6841L51.6646 53.8059C54.7187 55.6695 58.1248 56.585 61.8071 56.585V50.585ZM54.7897 48.6841C52.7265 47.4252 51.0776 45.6547 49.8404 43.2895L44.5239 46.0705C46.2334 49.3387 48.6144 51.9448 51.6646 53.8059L54.7897 48.6841ZM49.8404 43.2895C48.6196 40.9556 47.9721 38.2367 47.9721 35.06H41.9721C41.9721 39.0766 42.798 42.7711 44.5239 46.0705L49.8404 43.2895ZM78.1321 35.125C78.1321 32.0301 77.5058 29.1799 76.143 26.6725L70.8713 29.5375C71.6752 31.0168 72.1321 32.8465 72.1321 35.125H78.1321ZM76.143 26.6725C74.8065 24.2133 72.94 22.2698 70.5492 20.9354L67.6251 26.1746C68.9609 26.9202 70.0411 28.01 70.8713 29.5375L76.143 26.6725ZM70.6216 20.9771C68.3168 19.6052 65.7678 18.93 63.0421 18.93V24.93C64.7365 24.93 66.2175 25.3381 67.5527 26.1329L70.6216 20.9771ZM63.0421 18.93C60.3395 18.93 57.8069 19.572 55.5087 20.8853L58.4856 26.0947C59.8274 25.328 61.3248 24.93 63.0421 24.93V18.93ZM55.5087 20.8853C53.165 22.2245 51.333 24.1662 50.0063 26.6075L55.278 29.4725C56.1179 27.9271 57.1893 26.8355 58.4856 26.0947L55.5087 20.8853ZM50.0063 26.6075C48.6435 29.1149 48.0171 31.9651 48.0171 35.06H54.0171C54.0171 32.7815 54.4741 30.9518 55.278 29.4725L50.0063 26.6075ZM48.0171 35.06C48.0171 38.1913 48.6406 41.0754 49.9935 43.6188L55.2908 40.8012C54.477 39.2713 54.0171 37.3887 54.0171 35.06H48.0171ZM50.0063 43.6425C51.3281 46.0747 53.1462 48.024 55.4627 49.4029L58.5316 44.2471C57.2081 43.4593 56.1228 42.3319 55.278 40.7775L50.0063 43.6425ZM55.5087 49.4297C57.8069 50.743 60.3395 51.385 63.0421 51.385V45.385C61.3248 45.385 59.8274 44.987 58.4856 44.2203L55.5087 49.4297ZM63.0421 51.385C65.7448 51.385 68.2774 50.743 70.5756 49.4297L67.5987 44.2203C66.2569 44.987 64.7595 45.385 63.0421 45.385V51.385ZM70.595 49.4185C72.9591 48.0441 74.8116 46.0924 76.143 43.6425L70.8713 40.7775C70.036 42.3143 68.9419 43.4393 67.5793 44.2315L70.595 49.4185ZM76.1558 43.6188C77.5051 41.082 78.1321 38.2218 78.1321 35.125H72.1321C72.1321 37.4015 71.6758 39.2647 70.8585 40.8012L76.1558 43.6188ZM143.953 18.485L142.527 21.1247L142.548 21.1358L142.569 21.1466L143.953 18.485ZM149.088 23.62L146.456 25.06L146.456 25.06L149.088 23.62ZM150.973 53V56H153.973V53H150.973ZM145.123 53H142.123V56H145.123V53ZM142.458 24.725L140.238 26.743L140.262 26.7694L140.287 26.7952L142.458 24.725ZM128.028 24.855L130.221 26.902L130.232 26.8899L130.243 26.8778L128.028 24.855ZM125.298 53V56H128.298V53H125.298ZM119.448 53H116.448V56H119.448V53ZM116.783 24.725L114.563 26.743L114.587 26.7694L114.612 26.7952L116.783 24.725ZM102.353 24.855L104.546 26.902L104.557 26.8899L104.568 26.8778L102.353 24.855ZM99.6229 53V56H102.623V53H99.6229ZM93.7079 53H90.7079V56H93.7079V53ZM93.7079 17.38V14.38H90.7079V17.38H93.7079ZM99.6229 17.38H102.623V14.38H99.6229V17.38ZM99.6229 22.515H96.6229V32.9343L102.164 24.1103L99.6229 22.515ZM104.303 18.225L102.961 15.5417L102.949 15.5477L102.938 15.5537L104.303 18.225ZM118.798 18.745L117.283 21.3346L117.283 21.3346L118.798 18.745ZM123.933 24.66L121.18 25.8528L124.056 32.4886L126.722 25.7659L123.933 24.66ZM128.873 18.81L130.424 21.3782L130.424 21.3782L128.873 18.81ZM136.543 19.73C138.882 19.73 140.852 20.2197 142.527 21.1247L145.378 15.8453C142.721 14.4103 139.75 13.73 136.543 13.73V19.73ZM142.569 21.1466C144.169 21.9788 145.463 23.2458 146.456 25.06L151.72 22.18C150.199 19.4008 148.07 17.2445 145.337 15.8233L142.569 21.1466ZM146.456 25.06C147.417 26.8155 147.973 29.0875 147.973 32.005H153.973C153.973 28.3358 153.273 25.0179 151.72 22.18L146.456 25.06ZM147.973 32.005V53H153.973V32.005H147.973ZM150.973 50H145.123V56H150.973V50ZM148.123 53V32.85H142.123V53H148.123ZM148.123 32.85C148.123 28.8226 147.112 25.2592 144.629 22.6548L140.287 26.7952C141.357 27.9175 142.123 29.7707 142.123 32.85H148.123ZM144.678 22.707C142.283 20.0726 139.059 18.865 135.373 18.865V24.865C137.667 24.865 139.166 25.564 140.238 26.743L144.678 22.707ZM135.373 18.865C131.583 18.865 128.283 20.1263 125.812 22.8322L130.243 26.8778C131.413 25.597 133.009 24.865 135.373 24.865V18.865ZM125.835 22.808C123.321 25.5014 122.298 29.1868 122.298 33.37H128.298C128.298 30.0999 129.095 28.1086 130.221 26.902L125.835 22.808ZM122.298 33.37V53H128.298V33.37H122.298ZM125.298 50H119.448V56H125.298V50ZM122.448 53V32.85H116.448V53H122.448ZM122.448 32.85C122.448 28.8226 121.437 25.2592 118.954 22.6548L114.612 26.7952C115.682 27.9175 116.448 29.7707 116.448 32.85H122.448ZM119.003 22.707C116.608 20.0726 113.384 18.865 109.698 18.865V24.865C111.992 24.865 113.491 25.564 114.563 26.743L119.003 22.707ZM109.698 18.865C105.908 18.865 102.608 20.1263 100.137 22.8322L104.568 26.8778C105.738 25.597 107.334 24.865 109.698 24.865V18.865ZM100.16 22.808C97.6459 25.5014 96.6229 29.1868 96.6229 33.37H102.623C102.623 30.0999 103.42 28.1086 104.546 26.902L100.16 22.808ZM96.6229 33.37V53H102.623V33.37H96.6229ZM99.6229 50H93.7079V56H99.6229V50ZM96.7079 53V17.38H90.7079V53H96.7079ZM93.7079 20.38H99.6229V14.38H93.7079V20.38ZM96.6229 17.38V22.515H102.623V17.38H96.6229ZM102.164 24.1103C103.047 22.7028 104.202 21.6456 105.668 20.8963L102.938 15.5537C100.504 16.7977 98.5385 18.6006 97.0823 20.9197L102.164 24.1103ZM105.645 20.9083C107.193 20.1342 108.917 19.73 110.868 19.73V13.73C108.052 13.73 105.4 14.3225 102.961 15.5417L105.645 20.9083ZM110.868 19.73C113.393 19.73 115.501 20.2921 117.283 21.3346L120.313 16.1554C117.502 14.5112 114.323 13.73 110.868 13.73V19.73ZM117.283 21.3346C118.992 22.3342 120.29 23.7978 121.18 25.8528L126.686 23.4672C125.323 20.3222 123.197 17.8424 120.313 16.1554L117.283 21.3346ZM126.722 25.7659C127.479 23.8571 128.693 22.423 130.424 21.3782L127.322 16.2418C124.459 17.9703 122.381 20.4363 121.144 23.5541L126.722 25.7659ZM130.424 21.3782C132.229 20.2884 134.244 19.73 136.543 19.73V13.73C133.208 13.73 130.111 14.5583 127.322 16.2418L130.424 21.3782ZM213.521 18.485L212.095 21.1247L212.116 21.1358L212.137 21.1466L213.521 18.485ZM218.656 23.62L216.024 25.06L216.024 25.06L218.656 23.62ZM220.541 53V56H223.541V53H220.541ZM214.691 53H211.691V56H214.691V53ZM212.026 24.725L209.806 26.743L209.83 26.7694L209.854 26.7952L212.026 24.725ZM197.596 24.855L199.789 26.902L199.8 26.8899L199.811 26.8778L197.596 24.855ZM194.866 53V56H197.866V53H194.866ZM189.016 53H186.016V56H189.016V53ZM186.351 24.725L184.131 26.743L184.155 26.7694L184.179 26.7952L186.351 24.725ZM171.921 24.855L174.114 26.902L174.125 26.8899L174.136 26.8778L171.921 24.855ZM169.191 53V56H172.191V53H169.191ZM163.276 53H160.276V56H163.276V53ZM163.276 17.38V14.38H160.276V17.38H163.276ZM169.191 17.38H172.191V14.38H169.191V17.38ZM169.191 22.515H166.191V32.9343L171.731 24.1103L169.191 22.515ZM173.871 18.225L172.529 15.5417L172.517 15.5477L172.505 15.5537L173.871 18.225ZM188.366 18.745L186.851 21.3346L186.851 21.3346L188.366 18.745ZM193.501 24.66L190.748 25.8528L193.624 32.4886L196.289 25.7659L193.501 24.66ZM198.441 18.81L199.991 21.3782L199.991 21.3782L198.441 18.81ZM206.111 19.73C208.45 19.73 210.419 20.2197 212.095 21.1247L214.946 15.8453C212.289 14.4103 209.318 13.73 206.111 13.73V19.73ZM212.137 21.1466C213.737 21.9788 215.031 23.2458 216.024 25.06L221.287 22.18C219.767 19.4008 217.638 17.2445 214.905 15.8233L212.137 21.1466ZM216.024 25.06C216.984 26.8155 217.541 29.0875 217.541 32.005H223.541C223.541 28.3358 222.84 25.0179 221.287 22.18L216.024 25.06ZM217.541 32.005V53H223.541V32.005H217.541ZM220.541 50H214.691V56H220.541V50ZM217.691 53V32.85H211.691V53H217.691ZM217.691 32.85C217.691 28.8226 216.68 25.2592 214.197 22.6548L209.854 26.7952C210.925 27.9175 211.691 29.7707 211.691 32.85H217.691ZM214.246 22.707C211.851 20.0726 208.627 18.865 204.941 18.865V24.865C207.234 24.865 208.734 25.564 209.806 26.743L214.246 22.707ZM204.941 18.865C201.151 18.865 197.851 20.1263 195.38 22.8322L199.811 26.8778C200.981 25.597 202.577 24.865 204.941 24.865V18.865ZM195.403 22.808C192.889 25.5014 191.866 29.1868 191.866 33.37H197.866C197.866 30.0999 198.663 28.1086 199.789 26.902L195.403 22.808ZM191.866 33.37V53H197.866V33.37H191.866ZM194.866 50H189.016V56H194.866V50ZM192.016 53V32.85H186.016V53H192.016ZM192.016 32.85C192.016 28.8226 191.005 25.2592 188.522 22.6548L184.179 26.7952C185.25 27.9175 186.016 29.7707 186.016 32.85H192.016ZM188.571 22.707C186.176 20.0726 182.952 18.865 179.266 18.865V24.865C181.559 24.865 183.059 25.564 184.131 26.743L188.571 22.707ZM179.266 18.865C175.476 18.865 172.176 20.1263 169.705 22.8322L174.136 26.8778C175.306 25.597 176.902 24.865 179.266 24.865V18.865ZM169.728 22.808C167.214 25.5014 166.191 29.1868 166.191 33.37H172.191C172.191 30.0999 172.988 28.1086 174.114 26.902L169.728 22.808ZM166.191 33.37V53H172.191V33.37H166.191ZM169.191 50H163.276V56H169.191V50ZM166.276 53V17.38H160.276V53H166.276ZM163.276 20.38H169.191V14.38H163.276V20.38ZM166.191 17.38V22.515H172.191V17.38H166.191ZM171.731 24.1103C172.615 22.7028 173.77 21.6456 175.236 20.8963L172.505 15.5537C170.071 16.7977 168.106 18.6006 166.65 20.9197L171.731 24.1103ZM175.212 20.9083C176.76 20.1342 178.485 19.73 180.436 19.73V13.73C177.62 13.73 174.968 14.3225 172.529 15.5417L175.212 20.9083ZM180.436 19.73C182.961 19.73 185.069 20.2921 186.851 21.3346L189.88 16.1554C187.069 14.5112 183.891 13.73 180.436 13.73V19.73ZM186.851 21.3346C188.56 22.3342 189.858 23.7978 190.748 25.8528L196.253 23.4672C194.891 20.3222 192.765 17.8424 189.88 16.1554L186.851 21.3346ZM196.289 25.7659C197.046 23.8571 198.261 22.423 199.991 21.3782L196.89 16.2418C194.027 17.9703 191.948 20.4363 190.712 23.5541L196.289 25.7659ZM199.991 21.3782C201.796 20.2884 203.812 19.73 206.111 19.73V13.73C202.776 13.73 199.678 14.5583 196.89 16.2418L199.991 21.3782ZM264.433 17.38H267.433V14.38H264.433V17.38ZM264.433 53V56H267.433V53H264.433ZM258.518 53H255.518V56H258.518V53ZM258.518 47.735H261.518V37.1893L255.968 46.1559L258.518 47.735ZM253.773 52.025L255.115 54.7083L255.126 54.7026L255.138 54.6968L253.773 52.025ZM239.668 51.83L238.265 54.4814L238.285 54.4922L238.306 54.5027L239.668 51.83ZM234.403 46.63L231.772 48.07L231.782 48.089L231.793 48.1078L234.403 46.63ZM232.518 17.38V14.38H229.518V17.38H232.518ZM238.368 17.38H241.368V14.38H238.368V17.38ZM241.033 45.59L238.839 47.6352L238.85 47.6478L238.862 47.6602L241.033 45.59ZM255.788 45.46L253.595 43.413L253.595 43.413L255.788 45.46ZM258.518 17.38V14.38H255.518V17.38H258.518ZM261.433 17.38V53H267.433V17.38H261.433ZM264.433 50H258.518V56H264.433V50ZM261.518 53V47.735H255.518V53H261.518ZM255.968 46.1559C255.149 47.4782 253.993 48.5446 252.409 49.3532L255.138 54.6968C257.628 53.4254 259.634 51.6318 261.069 49.3141L255.968 46.1559ZM252.432 49.3417C250.891 50.112 249.147 50.52 247.143 50.52V56.52C249.994 56.52 252.669 55.9313 255.115 54.7083L252.432 49.3417ZM247.143 50.52C244.787 50.52 242.771 50.0445 241.031 49.1573L238.306 54.5027C240.986 55.8688 243.953 56.52 247.143 56.52V50.52ZM241.072 49.1786C239.397 48.2917 238.049 46.9794 237.014 45.1522L231.793 48.1078C233.358 50.8739 235.52 53.0283 238.265 54.4814L241.072 49.1786ZM237.035 45.19C236.075 43.4345 235.518 41.1625 235.518 38.245H229.518C229.518 41.9142 230.219 45.2321 231.772 48.07L237.035 45.19ZM235.518 38.245V17.38H229.518V38.245H235.518ZM232.518 20.38H238.368V14.38H232.518V20.38ZM235.368 17.38V37.465H241.368V17.38H235.368ZM235.368 37.465C235.368 41.4659 236.387 45.004 238.839 47.6352L243.228 43.5448C242.127 42.3627 241.368 40.4841 241.368 37.465H235.368ZM238.862 47.6602C241.314 50.2317 244.589 51.385 248.313 51.385V45.385C245.884 45.385 244.306 44.6749 243.205 43.5198L238.862 47.6602ZM248.313 51.385C252.14 51.385 255.489 50.1776 257.982 47.507L253.595 43.413C252.448 44.6424 250.813 45.385 248.313 45.385V51.385ZM257.982 47.507C260.495 44.8136 261.518 41.1282 261.518 36.945H255.518C255.518 40.2151 254.721 42.2064 253.595 43.413L257.982 47.507ZM261.518 36.945V17.38H255.518V36.945H261.518ZM258.518 20.38H264.433V14.38H258.518V20.38ZM282.936 23.165H279.936L285.607 24.5293L282.936 23.165ZM287.356 18.42L285.855 15.8224L285.842 15.8297L285.829 15.8372L287.356 18.42ZM294.441 16.73H297.441V13.73H294.441V16.73ZM294.441 22.84V25.84H297.441V22.84H294.441ZM282.936 53V56H285.936V53H282.936ZM277.021 53H274.021V56H277.021V53ZM277.021 17.38V14.38H274.021V17.38H277.021ZM282.936 17.38H285.936V14.38H282.936V17.38ZM285.607 24.5293C286.398 22.9818 287.481 21.8303 288.882 21.0028L285.829 15.8372C283.417 17.263 281.554 19.2749 280.264 21.8007L285.607 24.5293ZM288.856 21.0176C290.256 20.2091 292.073 19.73 294.441 19.73V13.73C291.261 13.73 288.356 14.3775 285.855 15.8224L288.856 21.0176ZM291.441 16.73V22.84H297.441V16.73H291.441ZM294.441 19.84H292.881V25.84H294.441V19.84ZM292.881 19.84C289.037 19.84 285.622 20.8938 283.216 23.5043C280.852 26.0686 279.936 29.6288 279.936 33.63H285.936C285.936 30.4378 286.676 28.6031 287.628 27.5707C288.537 26.5846 290.094 25.84 292.881 25.84V19.84ZM279.936 33.63V53H285.936V33.63H279.936ZM282.936 50H277.021V56H282.936V50ZM280.021 53V17.38H274.021V53H280.021ZM277.021 20.38H282.936V14.38H277.021V20.38ZM279.936 17.38V23.165H285.936V17.38H279.936ZM303.869 25.505L306.509 26.9298L306.513 26.9211L306.518 26.9125L303.869 25.505ZM309.914 19.07L308.402 16.4787L308.393 16.4842L308.383 16.4898L309.914 19.07ZM326.684 18.81L325.169 21.3996L325.169 21.3996L326.684 18.81ZM331.819 23.88L329.194 25.3322L334.819 23.88H331.819ZM331.819 17.38V14.38H328.819V17.38H331.819ZM337.799 17.38H340.799V14.38H337.799V17.38ZM337.799 53V56H340.799V53H337.799ZM331.819 53H328.819V56H331.819V53ZM331.819 46.37H334.819V34.9175L329.204 44.8992L331.819 46.37ZM326.554 51.57L328.068 54.1596L328.076 54.1552L328.083 54.1509L326.554 51.57ZM309.914 51.245L308.351 53.8059L308.351 53.8059L309.914 51.245ZM303.869 44.68L306.527 43.2895L306.527 43.2895L303.869 44.68ZM325.774 23.555L324.239 26.1329L324.275 26.1542L324.312 26.1746L325.774 23.555ZM313.684 23.49L312.195 20.8853L312.195 20.8853L313.684 23.49ZM309.329 28.04L311.965 29.4725L311.965 29.4725L309.329 28.04ZM309.329 42.21L306.68 43.6188L306.686 43.6307L306.693 43.6425L309.329 42.21ZM313.684 46.825L312.149 49.4029L312.172 49.4165L312.195 49.4297L313.684 46.825ZM325.774 46.825L327.262 49.4297L327.272 49.4242L327.282 49.4185L325.774 46.825ZM330.194 42.21L332.83 43.6425L332.836 43.6307L332.842 43.6188L330.194 42.21ZM304.659 35.06C304.659 31.831 305.31 29.1518 306.509 26.9298L301.229 24.0802C299.481 27.3182 298.659 31.009 298.659 35.06H304.659ZM306.518 26.9125C307.748 24.5966 309.388 22.8699 311.444 21.6502L308.383 16.4898C305.326 18.3034 302.936 20.8667 301.219 24.0975L306.518 26.9125ZM311.425 21.6613C313.543 20.4261 315.898 19.795 318.559 19.795V13.795C314.892 13.795 311.485 14.6805 308.402 16.4787L311.425 21.6613ZM318.559 19.795C321.239 19.795 323.406 20.3683 325.169 21.3996L328.198 16.2204C325.368 14.5651 322.118 13.795 318.559 13.795V19.795ZM325.169 21.3996C327.068 22.5102 328.364 23.832 329.194 25.3322L334.444 22.4278C333.02 19.8547 330.893 17.7964 328.198 16.2204L325.169 21.3996ZM334.819 23.88V17.38H328.819V23.88H334.819ZM331.819 20.38H337.799V14.38H331.819V20.38ZM334.799 17.38V53H340.799V17.38H334.799ZM337.799 50H331.819V56H337.799V50ZM334.819 53V46.37H328.819V53H334.819ZM329.204 44.8992C328.326 46.4593 326.976 47.8327 325.024 48.9891L328.083 54.1509C330.812 52.534 332.971 50.4407 334.433 47.8408L329.204 44.8992ZM325.039 48.9804C323.27 50.0154 321.122 50.585 318.494 50.585V56.585C322.018 56.585 325.244 55.8113 328.068 54.1596L325.039 48.9804ZM318.494 50.585C315.849 50.585 313.535 49.9405 311.476 48.6841L308.351 53.8059C311.405 55.6695 314.811 56.585 318.494 56.585V50.585ZM311.476 48.6841C309.413 47.4252 307.764 45.6547 306.527 43.2895L301.21 46.0705C302.92 49.3387 305.301 51.9448 308.351 53.8059L311.476 48.6841ZM306.527 43.2895C305.306 40.9556 304.659 38.2367 304.659 35.06H298.659C298.659 39.0766 299.485 42.7711 301.21 46.0705L306.527 43.2895ZM334.819 35.125C334.819 32.0301 334.192 29.1799 332.83 26.6725L327.558 29.5375C328.362 31.0168 328.819 32.8465 328.819 35.125H334.819ZM332.83 26.6725C331.493 24.2133 329.627 22.2698 327.236 20.9354L324.312 26.1746C325.647 26.9202 326.728 28.01 327.558 29.5375L332.83 26.6725ZM327.308 20.9771C325.003 19.6052 322.454 18.93 319.729 18.93V24.93C321.423 24.93 322.904 25.3381 324.239 26.1329L327.308 20.9771ZM319.729 18.93C317.026 18.93 314.493 19.572 312.195 20.8853L315.172 26.0947C316.514 25.328 318.011 24.93 319.729 24.93V18.93ZM312.195 20.8853C309.852 22.2245 308.02 24.1662 306.693 26.6075L311.965 29.4725C312.804 27.9271 313.876 26.8355 315.172 26.0947L312.195 20.8853ZM306.693 26.6075C305.33 29.1149 304.704 31.9651 304.704 35.06H310.704C310.704 32.7815 311.161 30.9518 311.965 29.4725L306.693 26.6075ZM304.704 35.06C304.704 38.1913 305.327 41.0754 306.68 43.6188L311.977 40.8012C311.164 39.2713 310.704 37.3887 310.704 35.06H304.704ZM306.693 43.6425C308.015 46.0747 309.833 48.024 312.149 49.4029L315.218 44.2471C313.895 43.4593 312.809 42.3319 311.965 40.7775L306.693 43.6425ZM312.195 49.4297C314.493 50.743 317.026 51.385 319.729 51.385V45.385C318.011 45.385 316.514 44.987 315.172 44.2203L312.195 49.4297ZM319.729 51.385C322.431 51.385 324.964 50.743 327.262 49.4297L324.285 44.2203C322.943 44.987 321.446 45.385 319.729 45.385V51.385ZM327.282 49.4185C329.646 48.0441 331.498 46.0924 332.83 43.6425L327.558 40.7775C326.723 42.3143 325.628 43.4393 324.266 44.2315L327.282 49.4185ZM332.842 43.6188C334.192 41.082 334.819 38.2218 334.819 35.125H328.819C328.819 37.4015 328.362 39.2647 327.545 40.8012L332.842 43.6188ZM356.309 24.01H353.309V35.3067L358.914 25.4984L356.309 24.01ZM361.639 18.81L363.133 21.4118L363.133 21.4118L361.639 18.81ZM378.279 19.07L379.81 16.4898L379.81 16.4898L378.279 19.07ZM384.324 25.505L381.675 26.9125L381.68 26.9211L381.684 26.9298L384.324 25.505ZM384.324 44.68L386.983 46.0705L386.983 46.0705L384.324 44.68ZM378.214 51.245L376.671 48.6725L376.661 48.6783L376.652 48.6841L378.214 51.245ZM361.509 51.57L359.995 54.1596L360.005 54.1657L360.016 54.1718L361.509 51.57ZM356.309 46.435L358.924 44.9642L353.309 34.9825V46.435H356.309ZM356.309 53V56H359.309V53H356.309ZM350.394 53H347.394V56H350.394V53ZM350.394 4.9V1.9H347.394V4.9H350.394ZM356.309 4.9H359.309V1.9H356.309V4.9ZM378.864 28.04L381.5 26.6075L381.5 26.6075L378.864 28.04ZM374.444 23.49L372.956 26.0947L372.969 26.1022L372.982 26.1096L374.444 23.49ZM362.354 23.555L363.843 26.1597L363.853 26.1542L363.862 26.1485L362.354 23.555ZM357.934 28.17L355.309 26.7178L355.304 26.7276L355.299 26.7375L357.934 28.17ZM357.934 42.21L355.286 43.6188L355.304 43.6527L355.323 43.6862L357.934 42.21ZM362.354 46.825L360.82 49.4029L360.856 49.4242L360.892 49.4446L362.354 46.825ZM374.444 46.825L375.933 49.4297L375.943 49.4242L375.952 49.4185L374.444 46.825ZM378.864 42.21L381.5 43.6425L381.507 43.6307L381.513 43.6188L378.864 42.21ZM358.914 25.4984C359.836 23.8852 361.207 22.5176 363.133 21.4118L360.146 16.2082C357.392 17.7891 355.21 19.8881 353.705 22.5216L358.914 25.4984ZM363.133 21.4118C364.971 20.3568 367.11 19.795 369.634 19.795V13.795C366.178 13.795 362.988 14.5765 360.146 16.2082L363.133 21.4118ZM369.634 19.795C372.346 19.795 374.692 20.4299 376.749 21.6502L379.81 16.4898C376.754 14.6768 373.336 13.795 369.634 13.795V19.795ZM376.749 21.6502C378.805 22.8699 380.445 24.5966 381.675 26.9125L386.974 24.0975C385.257 20.8667 382.867 18.3034 379.81 16.4898L376.749 21.6502ZM381.684 26.9298C382.884 29.1518 383.534 31.831 383.534 35.06H389.534C389.534 31.009 388.712 27.3182 386.965 24.0802L381.684 26.9298ZM383.534 35.06C383.534 38.2367 382.887 40.9556 381.666 43.2895L386.983 46.0705C388.709 42.7711 389.534 39.0766 389.534 35.06H383.534ZM381.666 43.2895C380.436 45.6419 378.774 47.4105 376.671 48.6725L379.758 53.8175C382.855 51.9595 385.267 49.3515 386.983 46.0705L381.666 43.2895ZM376.652 48.6841C374.593 49.9405 372.279 50.585 369.634 50.585V56.585C373.317 56.585 376.723 55.6695 379.777 53.8059L376.652 48.6841ZM369.634 50.585C367.007 50.585 364.828 50.0158 363.003 48.9682L360.016 54.1718C362.871 55.8109 366.108 56.585 369.634 56.585V50.585ZM363.024 48.9804C361.133 47.8742 359.804 46.5286 358.924 44.9642L353.695 47.9058C355.155 50.5014 357.293 52.5791 359.995 54.1596L363.024 48.9804ZM353.309 46.435V53H359.309V46.435H353.309ZM356.309 50H350.394V56H356.309V50ZM353.394 53V4.9H347.394V53H353.394ZM350.394 7.9H356.309V1.9H350.394V7.9ZM353.309 4.9V24.01H359.309V4.9H353.309ZM383.489 35.06C383.489 31.9651 382.863 29.1149 381.5 26.6075L376.229 29.4725C377.033 30.9518 377.489 32.7815 377.489 35.06H383.489ZM381.5 26.6075C380.164 24.1483 378.297 22.2048 375.907 20.8704L372.982 26.1096C374.318 26.8552 375.398 27.945 376.229 29.4725L381.5 26.6075ZM375.933 20.8853C373.635 19.572 371.102 18.93 368.399 18.93V24.93C370.117 24.93 371.614 25.328 372.956 26.0947L375.933 20.8853ZM368.399 18.93C365.706 18.93 363.17 19.6104 360.847 20.9615L363.862 26.1485C365.265 25.3329 366.76 24.93 368.399 24.93V18.93ZM360.866 20.9503C358.517 22.2924 356.672 24.2547 355.309 26.7178L360.56 29.6222C361.45 28.0119 362.552 26.8976 363.843 26.1597L360.866 20.9503ZM355.299 26.7375C353.94 29.2381 353.309 32.0643 353.309 35.125H359.309C359.309 32.899 359.763 31.0886 360.57 29.6025L355.299 26.7375ZM353.309 35.125C353.309 38.2218 353.936 41.082 355.286 43.6188L360.583 40.8012C359.766 39.2647 359.309 37.4015 359.309 35.125H353.309ZM355.323 43.6862C356.685 46.0962 358.515 48.0309 360.82 49.4029L363.889 44.2471C362.554 43.4525 361.437 42.3104 360.546 40.7338L355.323 43.6862ZM360.892 49.4446C363.21 50.738 365.729 51.385 368.399 51.385V45.385C366.736 45.385 365.226 44.992 363.817 44.2054L360.892 49.4446ZM368.399 51.385C371.102 51.385 373.635 50.743 375.933 49.4297L372.956 44.2203C371.614 44.987 370.117 45.385 368.399 45.385V51.385ZM375.952 49.4185C378.316 48.0441 380.169 46.0924 381.5 43.6425L376.229 40.7775C375.393 42.3143 374.299 43.4393 372.937 44.2315L375.952 49.4185ZM381.513 43.6188C382.866 41.0754 383.489 38.1913 383.489 35.06H377.489C377.489 37.3887 377.03 39.2713 376.216 40.8012L381.513 43.6188ZM402.835 24.01H399.835V35.3067L405.44 25.4984L402.835 24.01ZM408.165 18.81L409.659 21.4118L409.659 21.4118L408.165 18.81ZM424.805 19.07L426.336 16.4898L426.336 16.4898L424.805 19.07ZM430.85 25.505L428.201 26.9125L428.205 26.9211L428.21 26.9298L430.85 25.505ZM430.85 44.68L433.509 46.0705L433.509 46.0705L430.85 44.68ZM424.74 51.245L423.197 48.6725L423.187 48.6783L423.178 48.6841L424.74 51.245ZM408.035 51.57L406.521 54.1596L406.531 54.1657L406.542 54.1718L408.035 51.57ZM402.835 46.435L405.45 44.9642L399.835 34.9825V46.435H402.835ZM402.835 53V56H405.835V53H402.835ZM396.92 53H393.92V56H396.92V53ZM396.92 4.9V1.9H393.92V4.9H396.92ZM402.835 4.9H405.835V1.9H402.835V4.9ZM425.39 28.04L428.026 26.6075L428.026 26.6075L425.39 28.04ZM420.97 23.49L419.482 26.0947L419.495 26.1022L419.508 26.1096L420.97 23.49ZM408.88 23.555L410.369 26.1597L410.378 26.1542L410.388 26.1485L408.88 23.555ZM404.46 28.17L401.835 26.7178L401.83 26.7276L401.824 26.7375L404.46 28.17ZM404.46 42.21L401.812 43.6188L401.83 43.6527L401.849 43.6862L404.46 42.21ZM408.88 46.825L407.346 49.4029L407.382 49.4242L407.418 49.4446L408.88 46.825ZM420.97 46.825L422.459 49.4297L422.468 49.4242L422.478 49.4185L420.97 46.825ZM425.39 42.21L428.026 43.6425L428.033 43.6307L428.039 43.6188L425.39 42.21ZM405.44 25.4984C406.362 23.8852 407.732 22.5176 409.659 21.4118L406.672 16.2082C403.918 17.7891 401.735 19.8881 400.23 22.5216L405.44 25.4984ZM409.659 21.4118C411.496 20.3568 413.636 19.795 416.16 19.795V13.795C412.704 13.795 409.514 14.5765 406.672 16.2082L409.659 21.4118ZM416.16 19.795C418.872 19.795 421.218 20.4299 423.275 21.6502L426.336 16.4898C423.28 14.6768 419.862 13.795 416.16 13.795V19.795ZM423.275 21.6502C425.331 22.8699 426.971 24.5966 428.201 26.9125L433.5 24.0975C431.783 20.8667 429.393 18.3034 426.336 16.4898L423.275 21.6502ZM428.21 26.9298C429.409 29.1518 430.06 31.831 430.06 35.06H436.06C436.06 31.009 435.238 27.3182 433.49 24.0802L428.21 26.9298ZM430.06 35.06C430.06 38.2367 429.413 40.9556 428.192 43.2895L433.509 46.0705C435.234 42.7711 436.06 39.0766 436.06 35.06H430.06ZM428.192 43.2895C426.961 45.6419 425.3 47.4105 423.197 48.6725L426.284 53.8175C429.38 51.9595 431.792 49.3515 433.509 46.0705L428.192 43.2895ZM423.178 48.6841C421.118 49.9405 418.805 50.585 416.16 50.585V56.585C419.843 56.585 423.249 55.6695 426.303 53.8059L423.178 48.6841ZM416.16 50.585C413.533 50.585 411.354 50.0158 409.529 48.9682L406.542 54.1718C409.397 55.8109 412.634 56.585 416.16 56.585V50.585ZM409.55 48.9804C407.659 47.8742 406.33 46.5286 405.45 44.9642L400.22 47.9058C401.681 50.5014 403.819 52.5791 406.521 54.1596L409.55 48.9804ZM399.835 46.435V53H405.835V46.435H399.835ZM402.835 50H396.92V56H402.835V50ZM399.92 53V4.9H393.92V53H399.92ZM396.92 7.9H402.835V1.9H396.92V7.9ZM399.835 4.9V24.01H405.835V4.9H399.835ZM430.015 35.06C430.015 31.9651 429.389 29.1149 428.026 26.6075L422.754 29.4725C423.558 30.9518 424.015 32.7815 424.015 35.06H430.015ZM428.026 26.6075C426.69 24.1483 424.823 22.2048 422.432 20.8704L419.508 26.1096C420.844 26.8552 421.924 27.945 422.754 29.4725L428.026 26.6075ZM422.459 20.8853C420.16 19.572 417.628 18.93 414.925 18.93V24.93C416.643 24.93 418.14 25.328 419.482 26.0947L422.459 20.8853ZM414.925 18.93C412.232 18.93 409.696 19.6104 407.372 20.9615L410.388 26.1485C411.791 25.3329 413.285 24.93 414.925 24.93V18.93ZM407.392 20.9503C405.043 22.2924 403.198 24.2547 401.835 26.7178L407.085 29.6222C407.976 28.0119 409.077 26.8976 410.369 26.1597L407.392 20.9503ZM401.824 26.7375C400.465 29.2381 399.835 32.0643 399.835 35.125H405.835C405.835 32.899 406.288 31.0886 407.096 29.6025L401.824 26.7375ZM399.835 35.125C399.835 38.2218 400.462 41.082 401.812 43.6188L407.109 40.8012C406.292 39.2647 405.835 37.4015 405.835 35.125H399.835ZM401.849 43.6862C403.211 46.0962 405.041 48.0309 407.346 49.4029L410.415 44.2471C409.08 43.4525 407.963 42.3104 407.072 40.7338L401.849 43.6862ZM407.418 49.4446C409.736 50.738 412.255 51.385 414.925 51.385V45.385C413.262 45.385 411.752 44.992 410.342 44.2054L407.418 49.4446ZM414.925 51.385C417.628 51.385 420.16 50.743 422.459 49.4297L419.482 44.2203C418.14 44.987 416.643 45.385 414.925 45.385V51.385ZM422.478 49.4185C424.842 48.0441 426.695 46.0924 428.026 43.6425L422.754 40.7775C421.919 42.3143 420.825 43.4393 419.462 44.2315L422.478 49.4185ZM428.039 43.6188C429.392 41.0754 430.015 38.1913 430.015 35.06H424.015C424.015 37.3887 423.555 39.2713 422.742 40.8012L428.039 43.6188ZM443.641 10.425L445.762 8.30368L445.762 8.30368L443.641 10.425ZM443.641 4.705L445.762 6.82632L445.762 6.82632L443.641 4.705ZM449.231 4.705L447.05 6.76487L447.079 6.79602L447.11 6.82632L449.231 4.705ZM449.231 10.425L447.11 8.30368L447.079 8.33398L447.05 8.36513L449.231 10.425ZM449.361 17.38H452.361V14.38H449.361V17.38ZM449.361 53V56H452.361V53H449.361ZM443.446 53H440.446V56H443.446V53ZM443.446 17.38V14.38H440.446V17.38H443.446ZM446.501 8.595C446.151 8.595 445.966 8.50773 445.762 8.30368L441.52 12.5463C442.876 13.9023 444.598 14.595 446.501 14.595V8.595ZM445.762 8.30368C445.558 8.09963 445.471 7.91508 445.471 7.565H439.471C439.471 9.46825 440.164 11.1904 441.52 12.5463L445.762 8.30368ZM445.471 7.565C445.471 7.21492 445.558 7.03037 445.762 6.82632L441.52 2.58368C440.164 3.93963 439.471 5.66175 439.471 7.565H445.471ZM445.762 6.82632C445.966 6.62227 446.151 6.535 446.501 6.535V0.534998C444.598 0.534998 442.876 1.22773 441.52 2.58368L445.762 6.82632ZM446.501 6.535C446.768 6.535 446.886 6.59153 447.05 6.76487L451.412 2.64513C450.102 1.25846 448.401 0.534998 446.501 0.534998V6.535ZM447.11 6.82632C447.314 7.03037 447.401 7.21492 447.401 7.565H453.401C453.401 5.66175 452.708 3.93963 451.352 2.58368L447.11 6.82632ZM447.401 7.565C447.401 7.91508 447.314 8.09963 447.11 8.30368L451.352 12.5463C452.708 11.1904 453.401 9.46825 453.401 7.565H447.401ZM447.05 8.36513C446.886 8.53846 446.768 8.595 446.501 8.595V14.595C448.401 14.595 450.102 13.8715 451.412 12.4849L447.05 8.36513ZM446.361 17.38V53H452.361V17.38H446.361ZM449.361 50H443.446V56H449.361V50ZM446.446 53V17.38H440.446V53H446.446ZM443.446 20.38H449.361V14.38H443.446V20.38Z" fill="black"/>
</svg>
